TexturaLibera-ExtraLight.sfdir
StartChar: quotedbl
Encoding: 34 34 2
Width: 500
Flags: W
HStem: 433 159
VStem: 88 299
LayerCount: 2
Back
SplineSet
330 565 m 25
 360 535 l 1
 360 505 l 25
 315 460 l 1049
130 565 m 25
 160 535 l 1
 160 505 l 25
 115 460 l 1049
EndSplineSet
Fore
SplineSet
103 549 m 1
 146 592 l 1
 187 551 l 1
 187 521 l 1
 99 433 l 1
 88 444 l 1
 133 489 l 1
 133 519 l 1
 103 549 l 1
303 549 m 1
 346 592 l 1
 387 551 l 1
 387 521 l 1
 299 433 l 1
 288 444 l 1
 333 489 l 1
 333 519 l 1
 303 549 l 1
EndSplineSet
EndChar
StartChar: parenleft
Encoding: 40 40 8
Width: 250
Flags: W
HStem: -177 21G<176 204>
VStem: 23 54<106.235 442.734>
LayerCount: 2
Back
SplineSet
200 700 m 17
 200 700 50 575 50 275 c 0
 50 -25 200 -150 200 -150 c 1033
EndSplineSet
Fore
SplineSet
227 716 m 1
 209 698 l 2
 169 654 77 527 77 291 c 0
 77 48 176 -81 213 -121 c 0
 215 -123 216 -123 216 -123 c 1
 227 -134 l 1
 184 -177 l 1
 184 -177 181 -174 176 -169 c 2
 165 -158 l 2
 134 -127 23 2 23 259 c 0
 23 516 133 645 165 677 c 2
 207 719 l 2
 212 724 216 727 216 727 c 1
 227 716 l 1
EndSplineSet
EndChar
StartChar: asterisk
Encoding: 42 42 10
Width: 500
Flags: W
HStem: 507 20G<96 155.63 375.71 427>
VStem: 223 54<266 377 473 584>
LayerCount: 2
Back
SplineSet
100 350 m 25
 400 500 l 1049
250 600 m 25
 250 250 l 1049
100 500 m 25
 400 350 l 1049
EndSplineSet
Fore
SplineSet
73 484 m 1
 116 527 l 1
 223 473 l 1
 223 584 l 1
 266 627 l 1
 277 616 l 1
 277 458 l 1
 416 527 l 1
 427 516 l 1
 384 473 l 1
 304 433 l 1
 416 377 l 1
 427 366 l 1
 384 323 l 1
 277 377 l 1
 277 266 l 1
 234 223 l 1
 223 234 l 1
 223 392 l 1
 84 323 l 1
 73 334 l 1
 116 377 l 1
 196 417 l 1
 84 473 l 1
 73 484 l 1
EndSplineSet
EndChar
StartChar: semicolon
Encoding: 59 59 27
Width: 300
Flags: W
VStem: 88 104
LayerCount: 2
Back
SplineSet
130 30 m 25
 160 0 l 1
 160 -30 l 25
 115 -75 l 1049
135 340 m 25
 165 310 l 1049
EndSplineSet
Fore
SplineSet
108 324 m 1
 151 367 l 1
 192 326 l 1
 149 283 l 1
 108 324 l 1
103 14 m 1
 146 57 l 1
 187 16 l 1
 187 -14 l 1
 99 -102 l 1
 88 -91 l 1
 133 -46 l 1
 133 -16 l 1
 103 14 l 1
EndSplineSet
EndChar
StartChar: question
Encoding: 63 63 31
Width: 400
Flags: W
VStem: 73 54<466 509> 173 54<206 334> 273 54<416 528>
CounterMasks: 1 e0
LayerCount: 2
Back
SplineSet
100 450 m 25
 100 525 l 25
 175 600 l 25
 300 550 l 25
 300 400 l 25
 200 350 l 25
 200 190 l 1049
185 30 m 25
 215 0 l 1049
EndSplineSet
Fore
SplineSet
158 14 m 1
 201 57 l 1
 242 16 l 1
 199 -27 l 1
 158 14 l 1
84 423 m 1
 73 434 l 1
 73 509 l 1
 191 627 l 1
 316 577 l 1
 327 566 l 1
 327 416 l 1
 284 373 l 1
 227 344 l 1
 227 206 l 1
 184 163 l 1
 173 174 l 1
 173 334 l 1
 216 377 l 1
 273 406 l 1
 273 528 l 1
 159 573 l 1
 127 541 l 1
 127 466 l 1
 84 423 l 1
EndSplineSet
EndChar
StartChar: A
Encoding: 65 65 33
Width: 700
Flags: W
HStem: 23 54<95.4277 180.451> 323 54<243.607 297 357 384.493> 548 21G<198 227 428 459> 573 54<241.263 301.421>
VStem: 323 54<377.867 556.226>
AnchorPoint: "blwmark" 400 0 basechar 0
AnchorPoint: "abvmark" 450 700 basechar 0
LayerCount: 2
Back
SplineSet
515 570 m 25
 485 600 l 25
 455 570 l 1049
200 300 m 1
 200 300 230 350 300 350 c 3
 427 350 500 250 501 250 c 1025
225 575 m 1
 225 575 235 600 275 600 c 11
 324 600 350 549 350 500 c 3
 350 263 176 75 176 75 c 1025
50 0 m 17
 50 0 81 50 150 50 c 3
 248 50 275 0 275 0 c 1025
500 585 m 1
 550 50 l 1
 600 0 l 9
 650 50 l 1049
EndSplineSet
Fore
SplineSet
34 -27 m 1
 23 -16 l 1
 23 -16 27 -9 35 -1 c 2
 78 41 l 2
 93 56 121 77 164 77 c 1
 194 113 260 204 297 323 c 1
 293 323 288 323 284 323 c 0
 252 323 229 313 213 302 c 2
 184 273 l 1
 173 284 l 1
 173 284 177 291 185 299 c 2
 228 342 l 2
 243 357 270 376 312 377 c 1
 319 411 323 447 323 484 c 0
 323 511 315 540 299 559 c 0
 288 568 275 573 259 573 c 0
 245 573 235 570 227 566 c 2
 209 548 l 1
 198 559 l 1
 198 559 200 564 205 569 c 2
 248 612 l 2
 255 619 268 627 291 627 c 0
 310 627 324 620 336 608 c 2
 348 596 l 2
 367 577 377 546 377 516 c 0
 377 466 369 417 357 373 c 1
 425 361 473 322 498 297 c 2
 499 297 l 1
 473 569 l 1
 469 573 l 1
 439 543 l 1
 428 554 l 1
 501 627 l 1
 516 612 l 1
 527 601 l 1
 542 586 l 1
 529 573 l 1
 577 66 l 2
 579 46 604 39 616 27 c 1
 666 77 l 1
 677 66 l 1
 584 -27 l 1
 523 34 l 1
 504 241 l 1
 485 223 l 2
 474 235 l 2
 473 236 469 241 461 249 c 0
 437 272 395 304 338 317 c 1
 287 182 203 91 203 91 c 1
 188 76 l 1
 240 71 268 52 281 39 c 2
 292 28 l 2
 299 21 302 16 302 16 c 1
 259 -27 l 1
 248 -16 l 1
 248 -16 247 -13 244 -9 c 0
 227 5 193 23 134 23 c 0
 102 23 78 13 62 1 c 2
 34 -27 l 1
EndSplineSet
EndChar
StartChar: C
Encoding: 67 67 35
Width: 750
Flags: W
HStem: -27 54<302.421 469.248> 465 21G<273 292> 507 20G<421 452> 523 54<530.065 586.562> 573 54<414.496 478.744>
VStem: 98 54<190.399 392.066> 292 16<70 473 488.273 489 513 580> 398 54<116 484>
AnchorPoint: "blwmark" 400 0 basechar 0
AnchorPoint: "abvmark" 450 700 basechar 0
LayerCount: 2
Back
SplineSet
300 550 m 1
 300 100 l 1025
425 500 m 1
 425 100 l 1025
300 600 m 1
 300 600 125 480 125 300 c 3
 125 134 220 0 400 0 c 3
 519 0 651 150 652 150 c 1025
300 492 m 1
 300 492 395 600 455 600 c 3
 519 600 492 550 550 550 c 3
 598 550 625 600 626 600 c 1025
EndSplineSet
Fore
SplineSet
284 465 m 1xcf
 273 476 l 1
 273 476 280 484 292 496 c 1
 292 580 l 1
 308 580 l 1
 308 513 l 1
 338 542 l 2
 339 543 l 0
 371 575 430 627 471 627 c 0xcf
 493 627 503 621 511 613 c 2
 523 602 l 2
 528 597 532 590 536 584 c 0
 543 580 552 577 566 577 c 0xd7
 580 577 591 581 601 587 c 2
 641 627 l 2
 642 627 l 2xcf
 653 616 l 2
 651 614 645 603 634 592 c 2
 591 549 l 2
 578 536 559 523 534 523 c 0xd7
 516 523 506 528 499 535 c 2
 488 546 l 2
 483 551 479 559 474 565 c 0
 467 570 456 573 439 573 c 0
 405 573 362 540 329 510 c 0
 327 508 l 1
 308 489 l 1
 308 70 l 1
 292 70 l 1
 292 473 l 1
 284 465 l 1xcf
327 616 m 1
 284 573 l 1
 284 573 270 563 250 545 c 0
 203 492 152 413 152 316 c 0
 152 229 179 150 230 95 c 1
 275 53 338 27 416 27 c 0
 499 27 587 99 634 143 c 2
 667 176 l 1
 667 177 l 2
 668 177 l 2
 679 166 l 1
 677 164 l 2
 675 162 670 156 662 148 c 2
 619 105 l 2
 579 65 478 -27 384 -27 c 0
 302 -27 239 1 193 47 c 2
 181 58 l 2
 126 113 98 193 98 284 c 0
 98 396 166 485 217 536 c 2
 259 578 l 2
 290 609 316 627 316 627 c 1
 327 616 l 1
441 527 m 1xe7
 452 516 l 1
 452 116 l 1
 409 73 l 1
 398 84 l 1
 398 484 l 1
 441 527 l 1xe7
EndSplineSet
EndChar
StartChar: G
Encoding: 71 71 39
Width: 750
Flags: W
HStem: -27 54<302.421 495.255> 337 54<533.934 598.066> 465 21G<273 292> 507 20G<421 452> 523 54<530.065 586.562> 573 54<414.496 478.744>
VStem: 98 54<188.538 392.151> 292 16<70 473 488.273 489 513 580> 398 54<116 281 289 484> 623 54<133.257 316.752>
AnchorPoint: "blwmark" 400 0 basechar 0
AnchorPoint: "abvmark" 450 700 basechar 0
LayerCount: 2
Back
SplineSet
475 300 m 17
 475 300 522 364 575 364 c 3
 631 364 650 306 650 200 c 3
 650 75 519 0 400 0 c 3
 220 0 125 134 125 300 c 3
 125 480 300 600 300 600 c 1025
300 550 m 1
 300 100 l 1025
425 500 m 1
 425 100 l 1025
300 492 m 1
 300 492 395 600 455 600 c 3
 519 600 492 550 550 550 c 3
 598 550 625 600 626 600 c 1025
EndSplineSet
Fore
SplineSet
284 465 m 1xe7c0
 273 476 l 1
 273 476 280 484 292 496 c 1
 292 580 l 1
 308 580 l 1
 308 513 l 1
 338 542 l 2
 339 543 l 0
 371 575 430 627 471 627 c 0xe7c0
 493 627 503 621 511 613 c 2
 523 602 l 2
 528 597 532 590 536 584 c 0
 543 580 552 577 566 577 c 0xebc0
 580 577 591 581 601 587 c 2
 641 627 l 2
 642 627 l 2xe7c0
 653 616 l 2
 651 614 645 603 634 592 c 2
 591 549 l 2
 578 536 559 523 534 523 c 0xebc0
 516 523 506 528 499 535 c 2
 488 546 l 2
 483 551 479 559 474 565 c 0
 467 570 456 573 439 573 c 0
 405 573 362 540 329 510 c 0
 328 509 327 508 327 508 c 1
 308 489 l 1
 308 70 l 1
 292 70 l 1
 292 473 l 1
 284 465 l 1xe7c0
441 527 m 1xf7c0
 452 516 l 1
 452 289 l 2
 455 293 460 299 467 306 c 2
 510 349 l 2
 529 368 559 391 591 391 c 0
 608 391 621 386 632 375 c 2
 644 363 l 2
 668 339 677 289 677 216 c 0
 677 166 656 124 624 92 c 2
 582 50 l 1
 581 49 l 2
 532 0 456 -27 384 -27 c 0
 302 -27 239 1 193 47 c 2
 181 58 l 1
 126 113 98 194 98 284 c 0
 98 396 166 485 217 536 c 2
 259 578 l 2
 260 579 l 2
 291 610 316 627 316 627 c 2
 327 616 l 1
 284 573 l 2
 284 573 270 563 250 545 c 0
 204 493 152 413 152 316 c 0
 152 228 179 150 230 95 c 1
 275 53 338 27 416 27 c 0
 477 27 541 46 589 83 c 1
 610 111 623 145 623 184 c 0
 623 252 615 300 595 326 c 0
 585 333 573 337 559 337 c 0
 537 337 518 326 500 313 c 2
 459 273 l 1
 452 281 l 1
 452 116 l 1
 409 73 l 1
 398 84 l 1
 398 484 l 1
 441 527 l 1xf7c0
EndSplineSet
EndChar
StartChar: P
Encoding: 80 80 48
Width: 700
Flags: W
HStem: -27 21G<23 54 248 279> 23 54<95.0542 190.937> 272 55<352.234 429.073> 523 21G<23 54> 548 54<161.837 192> 573 25<83 97.9505 220.009 235> 607 20G<266.5 278 371 427>
VStem: 192 16<76 549> 298 54<66 264 325 534> 573 54<366 454>
AnchorPoint: "blwmark" 400 0 basechar 0
AnchorPoint: "abvmark" 400 700 basechar 0
LayerCount: 2
Back
SplineSet
250 250 m 25
 250 250 306 300 350 300 c 27
 421 300 500 250 500 250 c 1
 600 350 l 1
 600 475 l 1
 375 600 l 1
 325 550 l 1
 325 50 l 1
 275 0 l 1
 275 0 248 50 150 50 c 3
 81 50 50 0 50 0 c 1033
50 550 m 1
 50 550 84 600 124 600 c 3
 160 600 178 575 200 575 c 3
 228 575 250 600 251 600 c 1025
200 550 m 1
 200 75 l 1025
EndSplineSet
Fore
SplineSet
34 523 m 1xf7c0
 23 534 l 1
 23 534 30 544 41 555 c 2
 83 598 l 2
 84 598 l 0xf7c0
 98 612 118 627 140 627 c 0
 176 627 194 602 216 602 c 0xfbc0
 244 602 266 627 267 627 c 2
 278 616 l 1
 235 573 l 2xf7c0
 234 573 224 561 208 554 c 1
 208 73 l 1
 247 66 270 50 281 39 c 0
 292 28 l 1
 298 34 l 1
 298 264 l 2
 296 263 294 263 292 262 c 0
 261 247 234 223 234 223 c 1
 223 234 l 1
 266 277 l 1
 266 277 279 289 298 301 c 1
 298 534 l 1
 391 627 l 1
 616 502 l 1
 627 491 l 1
 627 366 l 1
 484 223 l 1
 484 223 418 265 352 272 c 1
 352 66 l 1
 259 -27 l 1
 248 -16 l 1
 248 -16 247 -13 244 -9 c 0
 227 6 193 23 134 23 c 0
 101 23 78 12 62 1 c 2
 34 -27 l 1
 23 -16 l 2
 23 -16 27 -9 35 -1 c 2
 78 41 l 2
 93 56 122 77 166 77 c 0
 175 77 184 77 192 76 c 1
 192 549 l 2
 190 549 187 548 184 548 c 0xfbc0
 162 548 144 573 108 573 c 0
 95 573 83 568 71 560 c 2
 34 523 l 1xf7c0
352 325 m 1
 357 326 362 327 366 327 c 0
 437 327 516 277 516 277 c 2
 516 277 567 328 573 334 c 1
 573 454 l 1
 359 573 l 2
 359 573 353 567 352 566 c 2
 352 325 l 1
EndSplineSet
EndChar
StartChar: S
Encoding: 83 83 51
Width: 700
Flags: W
HStem: 23 54<122.548 341.555> 523 54<329.295 523.661> 532 20G<545.89 577> 607 20G<196 316 556 627>
VStem: 73 54<463 484> 573 54<116 237>
AnchorPoint: "blwmark" 350 0 basechar 0
AnchorPoint: "abvmark" 350 700 basechar 0
LayerCount: 2
Back
SplineSet
550 525 m 25
 123 100 l 1049
470 189 m 1
 120 310 l 9
 150 375 l 1049
600 600 m 1
 600 600 514 550 450 550 c 3
 379 550 200 600 200 600 c 1
 100 500 l 1
 100 440 l 1
 600 260 l 1
 600 100 l 1
 500 0 l 1
 500 0 270 50 200 50 c 3
 127 50 50 0 50 0 c 1025
EndSplineSet
Fore
SplineSet
627 616 m 1xdc
 584 573 l 1
 584 573 498 523 434 523 c 0xdc
 363 523 184 573 184 573 c 2
 184 573 133 522 127 516 c 1
 127 463 l 1
 383 370 l 1
 566 552 l 1xbc
 577 541 l 1
 534 498 l 1
 400 364 l 1
 616 287 l 1
 627 276 l 1
 627 116 l 1
 484 -27 l 1
 484 -27 254 23 184 23 c 0
 111 23 34 -27 34 -27 c 1
 23 -16 l 1
 66 27 l 1
 66 27 143 77 216 77 c 0
 286 77 516 27 516 27 c 1
 573 84 l 1
 573 237 l 1
 352 317 l 1
 311 276 l 1
 486 216 l 1
 497 205 l 1
 454 162 l 1
 263 228 l 1
 107 73 l 1
 96 84 l 1
 139 127 l 1
 246 234 l 1
 104 283 l 1
 93 294 l 1
 123 359 l 1
 152 389 l 1
 84 413 l 1
 73 424 l 1
 73 484 l 1
 216 627 l 1
 216 627 395 577 466 577 c 0
 530 577 616 627 616 627 c 1
 627 616 l 1xdc
173 381 m 1
 150 332 l 1
 294 282 l 1
 335 323 l 1
 173 381 l 1
EndSplineSet
EndChar
StartChar: U
Encoding: 85 85 53
Width: 700
Flags: W
HStem: -27 54<271.94 419.063> 523 21G<23 54> 548 54<265 267 284.27 387> 573 25<83 97.9505> 607 20G<466.5 478>
VStem: 98 54<143.732 377.246> 267 16<45 552> 373 54<116 534> 573 54<31 109 115.812 164 168 594>
AnchorPoint: "blwmark" 350 0 basechar 0
AnchorPoint: "abvmark" 450 700 basechar 0
LayerCount: 2
Back
SplineSet
400 550 m 1
 400 100 l 1025
580 40 m 25
 620 0 l 25
 660 40 l 1049
580 625 m 25
 620 585 l 1049
600 605 m 9
 600 20 l 1049
250 550 m 1
 250 550 125 466 125 250 c 3
 125 84 214 0 350 0 c 3
 469 0 601 150 602 150 c 1049
50 550 m 1
 50 550 84 600 124 600 c 3
 204 600 228 575 400 575 c 3
 428 575 450 600 451 600 c 1025
275 525 m 1
 275 50 l 1025
EndSplineSet
Fore
SplineSet
34 523 m 1xdf80
 23 534 l 1
 23 534 30 544 41 555 c 2
 83 598 l 2
 84 598 l 0xdf80
 98 612 118 627 140 627 c 0
 220 627 244 602 416 602 c 0xef80
 444 602 466 627 467 627 c 2
 478 616 l 1
 435 573 l 2xdf80
 435 573 432 570 427 566 c 1
 427 116 l 1
 384 73 l 1
 373 84 l 1
 373 534 l 1
 387 548 l 2
 386 548 385 548 384 548 c 0xef80
 343 548 310 550 283 552 c 1
 283 39 l 1
 308 31 336 27 366 27 c 0
 443 27 524 89 573 133 c 1
 573 594 l 1
 558 609 l 1
 601 652 l 1
 616 637 l 1
 627 626 l 1
 642 611 l 1
 627 596 l 1
 627 168 l 1
 629 166 l 1
 627 164 l 2
 627 31 l 1
 631 27 l 1
 661 57 l 1
 672 46 l 1
 599 -27 l 1
 584 -12 l 1
 573 -1 l 1
 558 14 l 1
 573 29 l 1
 573 109 l 1
 569 105 l 2
 529 65 428 -27 334 -27 c 0
 268 -27 214 -7 175 32 c 2
 164 43 l 2
 122 85 98 148 98 234 c 0
 98 390 164 477 200 514 c 0
 242 556 l 1
 187 563 158 573 108 573 c 0
 95 573 83 568 71 560 c 2
 34 523 l 1xdf80
267 553 m 2
 266 553 266 553 265 553 c 2
 234 523 l 1
 234 523 234 523 233 522 c 0
 197 477 152 395 152 266 c 0
 152 184 174 122 212 80 c 0
 228 65 246 54 267 45 c 1
 267 553 l 2
EndSplineSet
EndChar
StartChar: W
Encoding: 87 87 55
Width: 1000
Flags: W
HStem: -27 21G<348 379 648 679> 123 54<143.612 192 208 270.346> 523 21G<23 54> 548 54<161.837 192> 573 25<83 97.9505 220.009 235> 607 20G<266.5 278 371 402 556 591 892 927>
VStem: 192 16<177 549> 298 54<266 534> 548 54<217 569> 773 54<455.769 510.102> 848 54<217 395.555>
AnchorPoint: "blwmark" 550 0 basechar 0
AnchorPoint: "abvmark" 575 700 basechar 0
LayerCount: 2
Back
SplineSet
555 600 m 25
 595 560 l 1049
50 550 m 1
 50 550 84 600 124 600 c 3
 160 600 178 575 200 575 c 3
 228 575 250 600 251 600 c 1025
200 550 m 1
 200 175 l 1025
325 250 m 1
 325 550 l 1
 375 600 l 1025
100 100 m 17
 100 100 138 150 175 150 c 3
 374 150 375 0 375 0 c 1
 575 201 l 1
 575 580 l 1025
900 600 m 1
 900 600 800 530 800 475 c 3
 800 419 875 415 875 415 c 1
 875 201 l 1
 675 0 l 1
 575 201 l 1049
EndSplineSet
Fore
SplineSet
927 616 m 1xefe0
 884 573 l 1xefe0
 884 573 871 564 855 550 c 0
 839 531 827 510 827 491 c 0
 827 479 831 467 836 460 c 0
 858 443 891 442 891 442 c 2
 902 431 l 1
 902 217 l 1
 702 16 l 1
 659 -27 l 1
 648 -16 l 1
 556 170 l 1
 402 16 l 1
 359 -27 l 1
 348 -16 l 1
 348 -16 348 -14 348 -10 c 0
 347 4 340 43 310 76 c 1
 281 102 234 123 159 123 c 0
 144 123 129 115 116 105 c 2
 84 73 l 1
 73 84 l 1
 73 84 79 93 89 102 c 2
 131 144 l 2
 145 158 169 177 191 177 c 0
 192 177 l 2
 192 549 l 2
 190 549 187 548 184 548 c 0xf7e0
 162 548 144 573 108 573 c 0
 95 573 83 568 71 560 c 2
 34 523 l 1
 23 534 l 1
 23 534 30 544 41 555 c 2
 83 598 l 2
 84 598 l 0xefe0
 98 612 118 627 140 627 c 0
 176 627 194 602 216 602 c 0xf7e0
 244 602 266 627 267 627 c 2
 278 616 l 1
 235 573 l 2
 234 573 224 561 208 554 c 1
 208 176 l 1
 277 173 320 151 347 124 c 2
 358 113 l 2
 384 87 395 56 399 36 c 1
 548 185 l 1
 548 569 l 1
 533 584 l 1
 576 627 l 1
 591 612 l 1
 602 601 l 1
 617 586 l 1
 602 571 l 1
 602 217 l 1
 694 31 l 1
 848 185 l 1
 848 390 l 1
 835 392 813 398 799 412 c 0
 788 423 l 2
 779 432 773 443 773 459 c 0
 773 485 796 515 820 539 c 2
 862 582 l 2
 888 608 916 627 916 627 c 1
 927 616 l 1xefe0
309 223 m 1
 298 234 l 1
 298 534 l 1
 391 627 l 1
 402 616 l 1
 352 566 l 1
 352 266 l 1
 309 223 l 1
EndSplineSet
EndChar
StartChar: Y
Encoding: 89 89 57
Width: 700
Flags: W
HStem: -177 54<104.82 395.676> -27 21G<348 379> 123 54<143.612 192 208 270.346> 523 21G<23 54> 548 54<161.837 192> 573 25<83 97.9505 220.009 235> 607 20G<266.5 278 371 402 556 591>
VStem: 192 16<177 549> 298 54<266 534> 548 54<-84 162 184 569>
AnchorPoint: "abvmark" 450 700 basechar 0
LayerCount: 2
Back
SplineSet
50 550 m 1
 50 550 84 600 124 600 c 3
 160 600 178 575 200 575 c 3
 228 575 250 600 251 600 c 1025
200 550 m 1
 200 175 l 1025
325 250 m 1
 325 550 l 1
 375 600 l 1025
100 100 m 17
 100 100 138 150 175 150 c 3
 374 150 375 0 375 0 c 1
 575 200 l 1025
50 -200 m 17
 50 -200 66 -150 250 -150 c 3
 412 -150 475 -200 475 -200 c 9
 575 -100 l 1
 575 580 l 1025
555 600 m 25
 595 560 l 1049
EndSplineSet
Fore
SplineSet
533 584 m 1xf7c0
 576 627 l 1
 591 612 l 1
 602 601 l 1
 617 586 l 1
 602 571 l 1
 602 216 l 1
 602 -84 l 1
 459 -227 l 1
 459 -227 396 -177 234 -177 c 0
 125 -177 75 -194 52 -209 c 1
 34 -227 l 1
 23 -216 l 1
 23 -216 25 -212 30 -207 c 2
 72 -164 l 2
 86 -150 132 -123 266 -123 c 0
 428 -123 491 -173 491 -173 c 2
 491 -173 542 -122 548 -116 c 1
 548 162 l 1
 359 -27 l 1
 348 -16 l 1
 348 -16 348 34 310 76 c 1
 281 102 234 123 159 123 c 0
 144 123 129 115 116 105 c 2
 84 73 l 1
 73 84 l 1
 73 84 79 93 89 102 c 2
 131 144 l 2
 145 158 169 177 191 177 c 0
 192 177 l 2
 192 549 l 2
 190 549 187 548 184 548 c 0xfbc0
 162 548 144 573 108 573 c 0
 95 573 83 568 71 560 c 2
 34 523 l 1
 23 534 l 1
 23 534 30 544 41 555 c 2
 83 598 l 2
 84 598 l 0xf7c0
 98 612 118 627 140 627 c 0
 176 627 194 602 216 602 c 0xfbc0
 244 602 266 627 267 627 c 2
 278 616 l 1
 235 573 l 2
 234 573 224 561 208 554 c 1
 208 176 l 1
 277 173 320 151 347 124 c 2
 358 113 l 2
 385 86 395 55 399 36 c 1
 548 184 l 1
 548 569 l 1
 533 584 l 1xf7c0
309 223 m 1
 298 234 l 1
 298 534 l 1
 391 627 l 1
 402 616 l 1
 352 566 l 1
 352 266 l 1
 309 223 l 1
EndSplineSet
EndChar
StartChar: underscore
Encoding: 95 95 63
Width: 700
Flags: W
HStem: -177 54<116 584>
LayerCount: 2
Back
SplineSet
100 -150 m 25
 600 -150 l 1049
EndSplineSet
Fore
SplineSet
73 -166 m 1
 116 -123 l 1
 616 -123 l 1
 627 -134 l 1
 584 -177 l 1
 84 -177 l 1
 73 -166 l 1
EndSplineSet
EndChar
StartChar: a
Encoding: 97 97 65
Width: 400
Flags: W
HStem: 198 54<194.062 273> 407 20G<171 291> 407 20G<171 291>
VStem: 73 54<91 159> 273 54<27.1868 87 109 198 252 350>
AnchorPoint: "blwmark" 200 0 basechar 0
AnchorPoint: "abvmark" 225 500 basechar 0
LayerCount: 2
Back
SplineSet
125 250 m 17
 100 325 l 1
 175 400 l 1
 300 375 l 1
 300 25 l 1
 325 0 l 1
 375 50 l 1049
300 125 m 25
 175 0 l 1
 100 75 l 1
 100 175 l 1
 175 250 l 1
 175 250 193.964297096 225 250 225 c 3
 230.995781714 225 300 225 300 225 c 1033
EndSplineSet
Fore
SplineSet
273 198 m 1x98
 233 198 l 2
 189 199 167 215 161 221 c 2
 159 223 l 1
 127 191 l 1
 127 91 l 1
 191 27 l 1
 273 109 l 1
 273 198 l 1x98
109 223 m 1
 98 234 l 1
 73 309 l 1
 191 427 l 1xd8
 316 402 l 1
 327 391 l 1
 327 241 l 1
 327 141 l 1
 327 41 l 2
 327 34 337 31 341 27 c 1
 391 77 l 1
 402 66 l 1
 309 -27 l 1
 273 9 l 1
 273 87 l 1
 159 -27 l 1
 73 59 l 1
 73 159 l 1
 191 277 l 1
 195 273 l 2
 203 266 222 252 262 252 c 0
 263 252 263 252 264 252 c 2
 273 252 l 1
 273 350 l 1
 159 373 l 1
 127 341 l 1
 152 266 l 1
 109 223 l 1
EndSplineSet
Substitution2: "Stylistic alternates-1" ascript
EndChar
StartChar: b
Encoding: 98 98 66
Width: 400
Flags: W
HStem: 407 20G<196 236> 407 20G<196 236>
VStem: 73 54<84 316 338 594> 273 54<116 316>
AnchorPoint: "blwmark" 200 0 basechar 0
AnchorPoint: "abvmark" 200 700 basechar 0
LayerCount: 2
Back
SplineSet
85 625 m 25
 115 595 l 1049
100 610 m 9
 100 100 l 25
 200 0 l 25
 300 100 l 25
 300 300 l 25
 200 400 l 1
 100 300 l 1049
EndSplineSet
Fore
SplineSet
127 316 m 1x30
 127 116 l 2
 127 66 190 53 216 27 c 1
 273 84 l 1
 273 284 l 2
 273 334 210 347 184 373 c 1
 127 316 l 1x30
127 338 m 1
 216 427 l 1xb0
 327 316 l 1
 327 116 l 1
 184 -27 l 1
 73 84 l 1
 73 594 l 1
 58 609 l 1
 101 652 l 1
 116 637 l 1
 127 626 l 1
 142 611 l 1
 127 596 l 1
 127 338 l 1
EndSplineSet
EndChar
StartChar: p
Encoding: 112 112 80
Width: 400
Flags: W
HStem: -177 21G<73 104> 407 20G<81 116 196 236> 407 20G<81 116 196 236>
VStem: 73 54<-134 7 74 316 338 369> 273 54<116 316>
AnchorPoint: "abvmark" 200 500 basechar 0
LayerCount: 2
Back
SplineSet
50 0 m 1
 50 0 96 50 125 50 c 0
 154 50 200 0 200 0 c 9
 300 100 l 1
 300 300 l 25
 200 400 l 1
 100 300 l 1049
85 400 m 25
 115 370 l 1049
100 385 m 1
 100 -150 l 1025
EndSplineSet
Fore
SplineSet
58 384 m 1xd8
 101 427 l 1
 116 412 l 1
 127 401 l 1
 142 386 l 1
 127 371 l 1
 127 338 l 1
 216 427 l 1
 327 316 l 1
 327 116 l 1
 184 -27 l 1
 173 -16 l 2
 173 -15 l 0
 162 -4 144 11 127 19 c 1
 127 -134 l 1
 84 -177 l 1
 73 -166 l 1
 73 7 l 1
 63 0 54 -7 47 -14 c 2
 34 -27 l 1
 23 -16 l 1
 23 -16 25 -13 29 -9 c 2
 72 33 l 2
 73 34 72 34 73 35 c 2
 73 284 l 1
 73 369 l 1
 58 384 l 1xd8
127 316 m 1
 127 74 l 1
 132 76 137 77 141 77 c 0
 164 77 197 46 210 33 c 2
 216 27 l 1
 273 84 l 1
 273 284 l 2
 273 334 210 347 184 373 c 1
 127 316 l 1
EndSplineSet
EndChar
StartChar: u
Encoding: 117 117 85
Width: 400
Flags: W
HStem: 407 20G<81 116 281 316> 407 20G<81 116 281 316>
VStem: 73 54<59 369> 273 54<41 87 109 369>
AnchorPoint: "blwmark" 200 0 basechar 0
AnchorPoint: "abvmark" 200 500 basechar 0
LayerCount: 2
Back
SplineSet
115 370 m 25
 85 400 l 1049
375 50 m 25
 325 0 l 1
 300 25 l 17
 300 385 l 1025
315 370 m 25
 285 400 l 1049
100 385 m 25
 100 75 l 1
 175 0 l 25
 300 125 l 1049
EndSplineSet
Fore
SplineSet
391 77 m 1xb0
 402 66 l 1
 309 -27 l 1
 273 9 l 1
 273 87 l 1
 159 -27 l 1
 73 59 l 1
 73 369 l 1
 58 384 l 1
 101 427 l 1
 116 412 l 1
 127 401 l 1
 142 386 l 1
 127 371 l 1
 127 91 l 2
 127 56 172 46 191 27 c 1
 273 109 l 1
 273 369 l 1
 258 384 l 1
 301 427 l 1
 316 412 l 1
 327 401 l 1
 342 386 l 1
 327 371 l 1
 327 141 l 1
 327 41 l 1
 341 27 l 1
 391 77 l 1xb0
EndSplineSet
EndChar
StartChar: x
Encoding: 120 120 88
Width: 400
Flags: W
HStem: 198 54<122.653 172.484> 198 4<266 310> 407 20G<96 136 296 336> 407 20G<96 136 296 336>
VStem: 173 54<116 149 251 284>
AnchorPoint: "blwmark" 200 0 basechar 0
AnchorPoint: "abvmark" 200 500 basechar 0
LayerCount: 2
Back
SplineSet
75 175 m 25
 75 175 122 225 150 225 c 24
 194 225 206 175 250 175 c 24
 278 175 325 225 326 225 c 1049
200 300 m 9
 300 400 l 25
 350 350 l 1049
200 100 m 9
 300 0 l 1
 350 50 l 1049
50 350 m 25
 100 400 l 25
 200 300 l 25
 200 100 l 25
 100 0 l 25
 50 50 l 1049
EndSplineSet
Fore
SplineSet
34 323 m 1x88
 23 334 l 1
 116 427 l 1
 216 327 l 1
 316 427 l 1
 377 366 l 1
 334 323 l 1
 284 373 l 1
 227 316 l 1
 227 217 l 1
 238 208 250 202 266 202 c 0x68
 294 202 341 252 342 252 c 2x88
 353 241 l 1
 310 198 l 2x48
 309 198 262 148 234 148 c 0
 231 148 229 149 227 149 c 2
 227 116 l 1
 316 27 l 1
 366 77 l 1
 377 66 l 1
 284 -27 l 1
 184 73 l 1
 84 -27 l 1
 23 34 l 1
 66 77 l 1
 116 27 l 1
 173 84 l 1
 173 183 l 1
 162 192 150 198 134 198 c 0
 113 198 83 172 68 157 c 2
 59 148 l 1
 48 159 l 1
 48 159 49 161 52 164 c 2
 95 206 l 2
 107 218 143 252 166 252 c 0
 169 252 171 251 173 251 c 2
 173 284 l 1
 84 373 l 1
 34 323 l 1x88
EndSplineSet
EndChar
StartChar: z
Encoding: 122 122 90
Width: 350
Flags: W
HStem: -227 54<145.339 202.711> -177 54<42.4053 104.108> 323 54<89.4813 152.462> 407 20G<46 77 207 236> 407 20G<46 77 207 236>
VStem: 223 54<-156.062 81>
AnchorPoint: "abvmark" 150 500 basechar 0
LayerCount: 2
Back
SplineSet
50 400 m 17
 50 400 81 350 125 350 c 0
 153 350 200 400 200 400 c 1
 250 350 l 1
 100 200 l 1
 250 100 l 1
 250 -150 l 1
 250 -150 203 -200 175 -200 c 0
 143 -200 106 -150 75 -150 c 16
 37 -150 0 -200 0 -200 c 1025
EndSplineSet
Fore
SplineSet
66 427 m 1xb4
 77 416 l 1
 77 416 81 408 89 399 c 0
 102 387 121 377 141 377 c 0
 162 377 193 404 207 418 c 2
 216 427 l 1
 277 366 l 1
 129 218 l 1
 266 127 l 1
 277 116 l 1
 277 -134 l 1
 277 -134 276 -136 273 -139 c 2
 230 -181 l 2
 218 -193 182 -227 159 -227 c 0xb4
 127 -227 90 -177 59 -177 c 0x64
 44 -177 30 -185 18 -194 c 2
 -16 -227 l 1xa4
 -27 -216 l 1
 -27 -216 -21 -208 -11 -198 c 2
 31 -155 l 2
 45 -141 68 -123 91 -123 c 0x64
 122 -123 159 -173 191 -173 c 0
 200 -173 210 -168 223 -160 c 1
 223 81 l 1
 84 173 l 1
 73 184 l 1
 223 334 l 1
 184 373 l 1
 180 369 l 2
 168 357 132 323 109 323 c 0
 85 323 66 338 53 351 c 2
 41 362 l 2
 29 374 23 384 23 384 c 1
 66 427 l 1xb4
EndSplineSet
EndChar
StartChar: section
Encoding: 167 167 206
Width: 500
Flags: W
HStem: -177 54<111.206 228.214> 623 54<277.182 394.303>
VStem: 73 54<173 284 473 584> 373 54<-84 27 216 327>
LayerCount: 2
Back
SplineSet
200 400 m 25
 100 300 l 25
 100 150 l 25
 400 50 l 25
 400 -100 l 25
 300 -200 l 25
 300 -200 220 -150 163 -150 c 27
 115 -150 50 -200 50 -200 c 1049
450 700 m 25
 450 700 394 650 350 650 c 27
 288 650 200 700 200 700 c 25
 100 600 l 25
 100 450 l 25
 400 350 l 25
 400 200 l 25
 300 100 l 1049
EndSplineSet
Fore
SplineSet
477 716 m 1
 434 673 l 1
 434 673 378 623 334 623 c 0
 272 623 184 673 184 673 c 2
 184 673 133 622 127 616 c 1
 127 473 l 1
 416 377 l 1
 427 366 l 1
 427 216 l 1
 320 109 l 1
 416 77 l 1
 427 66 l 1
 427 -84 l 1
 284 -227 l 1
 284 -227 204 -177 147 -177 c 0
 99 -177 34 -227 34 -227 c 1
 23 -216 l 1
 66 -173 l 1
 66 -173 131 -123 179 -123 c 0
 236 -123 316 -173 316 -173 c 1
 373 -116 l 1
 373 27 l 1
 84 123 l 1
 73 134 l 1
 73 284 l 1
 180 391 l 1
 84 423 l 1
 73 434 l 1
 73 584 l 1
 216 727 l 1
 216 727 304 677 366 677 c 0
 410 677 466 727 466 727 c 1
 477 716 l 1
303 114 m 1
 373 184 l 1
 373 327 l 1
 197 386 l 1
 127 316 l 1
 127 173 l 1
 303 114 l 1
EndSplineSet
EndChar
StartChar: registered
Encoding: 174 174 222
Width: 700
Flags: W
HStem: 0 600<239.844 460.156>
VStem: 50 600<189.844 410.156>
LayerCount: 2
Back
SplineSet
193 438 m 1
 193 438 212 465 234 465 c 3
 254 465 264 451 276 451 c 3
 291 451 303 465 304 465 c 1025
276 438 m 1
 276 176 l 1025
413 314 m 1
 496 396 l 1
 372 465 l 1
 345 438 l 1
 345 162 l 1
 317 135 l 1
 317 135 302 162 248 162 c 3
 210 162 193 135 193 135 c 1033
441 341 m 1
 468 314 l 1
 468 162 l 1
 496 135 l 9
 523 162 l 1049
50 350 m 0
 50 475 175 600 300 600 c 0
 550 600 650 500 650 250 c 0
 650 125 525 0 400 0 c 0
 150 0 50 100 50 350 c 0
EndSplineSet
Fore
SplineSet
193 438 m 1
 193 438 212 465 234 465 c 3
 254 465 264 451 276 451 c 3
 291 451 303 465 304 465 c 1025
276 438 m 1
 276 176 l 1025
413 314 m 1
 496 396 l 1
 372 465 l 1
 345 438 l 1
 345 162 l 1
 317 135 l 1
 317 135 302 162 248 162 c 3
 210 162 193 135 193 135 c 1033
441 341 m 1
 468 314 l 1
 468 162 l 1
 496 135 l 9
 523 162 l 1049
50 350 m 0
 50 475 175 600 300 600 c 0
 550 600 650 500 650 250 c 0
 650 125 525 0 400 0 c 0
 150 0 50 100 50 350 c 0
EndSplineSet
EndChar
StartChar: plusminus
Encoding: 177 177 213
Width: 600
Flags: W
HStem: -2 54<116 484> 348 54<116 273 327 484>
VStem: 273 54<191 348 402 559>
LayerCount: 2
Back
SplineSet
100 25 m 25
 500 25 l 1049
300 575 m 25
 300 175 l 1049
100 375 m 25
 500 375 l 1049
EndSplineSet
Fore
SplineSet
73 359 m 1
 116 402 l 1
 273 402 l 1
 273 559 l 1
 316 602 l 1
 327 591 l 1
 327 402 l 1
 516 402 l 1
 527 391 l 1
 484 348 l 1
 327 348 l 1
 327 191 l 1
 284 148 l 1
 273 159 l 1
 273 348 l 1
 84 348 l 1
 73 359 l 1
73 9 m 1
 116 52 l 1
 516 52 l 1
 527 41 l 1
 484 -2 l 1
 84 -2 l 1
 73 9 l 1
EndSplineSet
EndChar
StartChar: micro
Encoding: 181 181 209
Width: 400
Flags: W
HStem: -177 21G<73 104> -3 55<127 175.62> 407 20G<81 116 281 316> 407 20G<81 116 281 316>
VStem: 73 54<-134 -5 51 369> 273 54<41 62 84 369>
LayerCount: 2
Back
SplineSet
100 385 m 1
 100 -150 l 1025
115 370 m 9
 85 400 l 1041
375 50 m 9
 325 0 l 1
 300 25 l 17
 300 385 l 1025
315 370 m 9
 285 400 l 1041
50 0 m 1
 50 0 59.9692380484 25 125 25 c 3
 186 25 200 0 200 0 c 9
 300 100 l 1025
EndSplineSet
Fore
SplineSet
34 -27 m 1xec
 23 -16 l 1
 23 -16 25 -13 28 -10 c 2
 70 33 l 2
 71 34 72 35 73 36 c 2
 73 369 l 1
 58 384 l 1
 101 427 l 1
 116 412 l 1
 127 401 l 1
 142 386 l 1
 127 371 l 1
 127 51 l 1
 131 51 136 52 141 52 c 0
 186 52 205 38 212 31 c 2
 216 27 l 1
 273 84 l 1
 273 369 l 1
 258 384 l 1
 301 427 l 1
 316 412 l 1
 327 401 l 1
 342 386 l 1
 327 371 l 1
 327 116 l 1
 327 41 l 1
 341 27 l 1
 391 77 l 1
 402 66 l 1
 309 -27 l 1
 273 9 l 1
 273 62 l 1
 184 -27 l 1
 176 -18 l 2
 168 -12 153 -5 127 -3 c 1
 127 -134 l 1
 84 -177 l 1
 73 -166 l 1
 73 -5 l 1
 61 -8 52 -11 46 -15 c 2
 34 -27 l 1xec
EndSplineSet
EndChar
StartChar: paragraph
Encoding: 182 182 226
Width: 600
Flags: W
HStem: -177 54<270.087 342 358 443.941> 73 54<175.178 268.637> 548 54<311.837 342> 573 54<207.619 319.527> 573 29<366.982 385>
VStem: 73 54<197.59 469.524> 342 16<-123 549> 448 54<-59 534>
LayerCount: 2
Back
SplineSet
300 150 m 17
 300 150 290.06919394 100 225 100 c 3
 140 100 100 177.895380655 100 350 c 3
 100 469 141.905336974 600 274 600 c 3
 310 600 328 575 350 575 c 3
 378 575 400 600 401 600 c 1025
350 550 m 1
 350 -125 l 1025
525 600 m 1
 475 550 l 1
 475 -75 l 1025
550 -200 m 1
 550 -200 423 -150 325 -150 c 3
 256 -150 225 -200 225 -200 c 1025
EndSplineSet
Fore
SplineSet
577 -184 m 1xcf
 534 -227 l 1
 534 -227 407 -177 309 -177 c 0
 276 -177 253 -188 237 -199 c 2
 209 -227 l 1
 198 -216 l 2
 198 -216 202 -209 210 -201 c 2
 253 -159 l 2
 268 -144 297 -123 341 -123 c 0
 342 -123 l 2
 342 549 l 2
 340 549 337 548 334 548 c 0xe7
 312 548 294 573 258 573 c 0
 224 573 196 564 173 549 c 1
 140 501 127 432 127 366 c 0
 127 258 142 187 175 149 c 0
 192 134 215 127 241 127 c 0
 254 127 263 129 272 132 c 0
 272 133 273 134 273 134 c 1
 316 177 l 1
 327 166 l 1
 327 166 324 151 310 137 c 2
 268 94 l 2
 257 83 238 73 209 73 c 0
 180 73 157 82 138 101 c 2
 127 112 l 2
 91 149 73 221 73 334 c 0
 73 411 91 494 139 542 c 2
 181 584 l 2
 182 585 l 2
 208 611 244 627 290 627 c 0xd7
 326 627 344 602 366 602 c 0xcf
 394 602 416 627 417 627 c 2xd7
 428 616 l 1
 385 573 l 2
 384 573 374 561 358 554 c 1
 358 -124 l 1
 453 -129 566 -173 566 -173 c 1
 577 -184 l 1xcf
541 627 m 1xd7
 552 616 l 1
 502 566 l 1
 502 -59 l 1
 459 -102 l 1
 448 -91 l 1
 448 534 l 1
 541 627 l 1xd7
EndSplineSet
EndChar
StartChar: periodcentered
Encoding: 183 183 212
Width: 300
Flags: W
HStem: 283 84
VStem: 108 84
LayerCount: 2
Back
SplineSet
135 340 m 25
 165 310 l 1049
EndSplineSet
Fore
SplineSet
108 324 m 1
 151 367 l 1
 192 326 l 1
 149 283 l 1
 108 324 l 1
EndSplineSet
EndChar
StartChar: guillemotright
Encoding: 187 187 216
Width: 550
Flags: W
HStem: 23 329
LayerCount: 2
Back
SplineSet
325 325 m 17
 325 325 346.540039062 295.372070312 375 275 c 0
 470 207 500 200 500 200 c 1
 500 200 436 174 350 100 c 0
 328.924804688 81.8662109375 300 50 300 50 c 1033
75 325 m 17
 75 325 96.5400390625 295.372070312 125 275 c 0
 220 207 250 200 250 200 c 1
 250 200 186 174 100 100 c 0
 78.9248046875 81.8662109375 50 50 50 50 c 1033
EndSplineSet
Fore
SplineSet
91 352 m 1
 102 341 l 1
 102 341 110 330 121 318 c 0
 127 312 134 307 141 302 c 0
 209 253 243 236 257 230 c 0
 263 228 266 227 266 227 c 1
 277 216 l 1
 234 173 l 1
 234 173 232 172 228 170 c 0
 210 162 154 134 84 73 c 0
 83 72 81 70 81 70 c 0
 78 67 77 66 77 66 c 2
 34 23 l 1
 23 34 l 1
 23 34 35 48 50 63 c 2
 93 106 l 2
 100 114 109 121 116 127 c 0
 147 154 175 175 199 190 c 1
 179 201 150 219 109 248 c 0
 100 255 91 263 84 270 c 2
 73 281 l 2
 58 296 48 309 48 309 c 1
 91 352 l 1
341 352 m 1
 352 341 l 1
 352 341 360 330 371 318 c 0
 377 312 384 307 391 302 c 0
 459 253 493 236 507 230 c 0
 513 228 516 227 516 227 c 1
 527 216 l 1
 484 173 l 1
 484 173 482 172 478 170 c 0
 460 162 404 134 334 73 c 0
 333 72 331 70 331 70 c 0
 328 67 327 66 327 66 c 2
 284 23 l 1
 273 34 l 1
 273 34 285 48 300 63 c 2
 343 106 l 2
 350 114 359 121 366 127 c 0
 397 154 425 175 449 190 c 1
 429 201 400 219 359 248 c 0
 350 255 341 263 334 270 c 2
 323 281 l 2
 308 296 298 309 298 309 c 1
 341 352 l 1
EndSplineSet
EndChar
StartChar: AE
Encoding: 198 198 188
Width: 1150
Flags: W
HStem: -27 54<702.421 869.248> 23 54<95.4277 180.451> 273 54<930.5 983.656> 323 54<243.607 297 357 384.127 872.029 908.452> 486 62G<198 227 428 459 673 692> 507 20G<821 852> 523 54<930.065 986.562> 573 54<241.263 301.421 814.496 878.744>
VStem: 323 54<377.867 556.226> 692 16<70 473 488.273 489 513 580> 798 54<116 321.456 338 484>
AnchorPoint: "blwmark" 600 0 basechar 0
AnchorPoint: "abvmark" 600 700 basechar 0
LayerCount: 2
Back
SplineSet
515 570 m 9
 485 600 l 25
 455 570 l 1041
200 300 m 1
 200 300 230 350 300 350 c 3
 427 350 500 250 501 250 c 1025
225 575 m 1
 225 575 235 600 275 600 c 11
 324 600 350 549 350 500 c 3
 350 263 176 75 176 75 c 1025
50 0 m 1
 50 0 81 50 150 50 c 3
 248 50 275 0 275 0 c 1025
500 585 m 1
 525 300 l 1025
825 300 m 25
 825 300 872 350 900 350 c 27
 935 350 915 300 950 300 c 3
 991 300 1025 350 1026 350 c 1049
700 550 m 1
 700 100 l 1025
825 500 m 1
 825 100 l 1025
700 600 m 1
 700 600 525 480 525 300 c 3
 525 134 620 0 800 0 c 3
 919 0 1051 150 1052 150 c 1025
700 492 m 1
 700 492 795 600 855 600 c 3
 919 600 892 550 950 550 c 3
 998 550 1025 600 1026 600 c 1025
EndSplineSet
Fore
SplineSet
684 465 m 1x01e0
 673 476 l 1
 673 476 680 484 692 496 c 1
 692 580 l 1
 708 580 l 1
 708 513 l 1
 738 542 l 2
 739 543 l 0
 771 575 830 627 871 627 c 0x01e0
 893 627 903 621 911 613 c 2
 923 602 l 2
 928 597 932 590 936 584 c 0
 943 580 952 577 966 577 c 0x02e0
 980 577 991 581 1001 587 c 2
 1041 627 l 2
 1042 627 l 2x01e0
 1053 616 l 2
 1051 614 1045 603 1034 592 c 2
 991 549 l 2
 978 536 959 523 934 523 c 0x02e0
 916 523 906 528 899 535 c 2
 888 546 l 2
 883 551 879 559 874 565 c 0
 867 570 856 573 839 573 c 0
 805 573 762 540 729 510 c 0
 728 509 727 508 727 508 c 1
 708 489 l 1
 708 70 l 1
 692 70 l 1
 692 473 l 1
 684 465 l 1x01e0
727 616 m 1
 684 573 l 1
 684 573 670 563 650 545 c 0
 603 492 552 413 552 316 c 0
 552 229 579 150 630 95 c 1
 675 53 738 27 816 27 c 0
 899 27 987 99 1034 143 c 2
 1067 176 l 1
 1067 177 l 2
 1068 177 l 2
 1079 166 l 1
 1077 164 l 2
 1075 162 1070 156 1062 148 c 2
 1019 105 l 2
 979 65 878 -27 784 -27 c 0
 702 -27 639 1 593 47 c 2
 581 58 l 2
 536 103 509 166 501 238 c 1
 485 223 l 2
 474 235 l 2
 473 236 469 241 461 249 c 0
 437 272 395 304 338 317 c 1
 287 182 203 91 203 91 c 2
 188 76 l 1
 240 71 268 52 281 39 c 2
 292 28 l 2
 299 21 302 16 302 16 c 1
 259 -27 l 1x99e0
 248 -16 l 1
 248 -16 247 -13 244 -9 c 0
 227 5 193 23 134 23 c 0x40e0
 102 23 78 13 62 1 c 2
 34 -27 l 1x80e0
 23 -16 l 1
 23 -16 27 -9 35 -1 c 2
 78 41 l 2
 93 56 121 77 164 77 c 1
 194 113 260 204 297 323 c 1
 293 323 288 323 284 323 c 0x50e0
 252 323 229 313 213 302 c 2
 184 273 l 1x20e0
 173 284 l 1
 173 284 177 291 185 299 c 2
 228 342 l 2
 243 357 270 376 312 377 c 1
 319 411 323 447 323 484 c 0
 323 511 315 540 299 559 c 0
 288 568 275 573 259 573 c 0
 245 573 235 570 227 566 c 2
 209 548 l 1x19e0
 198 559 l 1
 198 559 200 564 205 569 c 2
 248 612 l 2
 255 619 268 627 291 627 c 0
 310 627 324 620 336 608 c 2
 348 596 l 2
 367 577 377 546 377 516 c 0
 377 466 369 417 357 373 c 1
 424 361 472 323 497 298 c 1
 473 569 l 1
 469 573 l 1
 439 543 l 1
 428 554 l 1
 501 627 l 1
 516 612 l 1
 527 601 l 1
 542 586 l 1
 529 573 l 1
 541 438 l 1
 564 478 592 511 617 536 c 2
 659 578 l 2
 690 609 716 627 716 627 c 1
 727 616 l 1
841 527 m 1x14e0
 852 516 l 1
 852 338 l 1
 868 353 897 377 916 377 c 0x14e0
 923 377 927 375 931 371 c 2
 943 360 l 2
 950 352 951 338 956 328 c 0
 959 327 962 327 966 327 c 0x20e0
 982 327 996 335 1007 343 c 2
 1041 377 l 2
 1042 377 l 2x10e0
 1053 366 l 1
 1050 363 1045 356 1036 347 c 2
 1035 346 l 2
 993 303 l 2
 979 289 957 273 934 273 c 0x20e0
 927 273 923 275 919 279 c 2
 907 290 l 2
 899 298 899 312 894 322 c 0
 892 323 888 323 884 323 c 0
 874 323 863 318 852 310 c 1
 852 116 l 1
 809 73 l 1
 798 84 l 1
 798 284 l 1
 798 484 l 1
 841 527 l 1x14e0
EndSplineSet
EndChar
StartChar: multiply
Encoding: 215 215 223
Width: 600
Flags: W
HStem: 507 20G<96 136 496 527>
LayerCount: 2
Back
SplineSet
500 500 m 25
 100 100 l 1049
100 500 m 25
 500 100 l 1049
EndSplineSet
Fore
SplineSet
73 484 m 1
 116 527 l 1
 316 327 l 1
 516 527 l 1
 527 516 l 1
 327 316 l 1
 527 116 l 1
 484 73 l 1
 284 273 l 1
 84 73 l 1
 73 84 l 1
 273 284 l 1
 73 484 l 1
EndSplineSet
EndChar
StartChar: germandbls
Encoding: 223 223 131
Width: 500
Flags: W
HStem: -227 54<20.3388 77.6147> -177 22<-94 -81.3897> 323 54<215.205 317.715> 407 20G<152 213.2 346 386> 407 20G<152 213.2 346 386> 623 4<316 360>
VStem: 98 54<-139 -138 -134 -64 -2.164 362 413 534> 373 54<-156.062 81>
AnchorPoint: "abvmark" 300 750 basechar 0
LayerCount: 2
Back
SplineSet
150 400 m 1
 150 400 224 350 268 350 c 3
 342 350 350 400 350 400 c 1
 400 350 l 1
 250 200 l 1
 400 100 l 1
 400 -150 l 1
 400 -150 353.000180261 -200 325 -200 c 1
 259 -113 125 0 125 0 c 1025
-125 -200 m 17
 -125 -200 -88 -150 -50 -150 c 8
 -19 -150 18 -200 50 -200 c 24
 78 -200 125 -150 125 -150 c 1
 125 550 l 1
 225 650 l 17
 225 650 256 600 300 600 c 24
 328 600 375 650 376 650 c 1033
EndSplineSet
Fore
SplineSet
-141 -227 m 1xa7
 -152 -216 l 1
 -152 -216 -146 -208 -136 -198 c 2
 -94 -155 l 2
 -93 -155 l 0x67
 -78 -140 -56 -123 -34 -123 c 0
 -3 -123 34 -173 66 -173 c 0
 76 -173 88 -167 98 -160 c 1
 98 -16 l 1
 98 534 l 1
 241 677 l 1
 252 666 l 1
 252 666 256 658 264 649 c 0
 277 637 296 627 316 627 c 0
 344 627 391 677 392 677 c 2
 403 666 l 1
 360 623 l 2
 359 623 312 573 284 573 c 0
 260 573 241 588 228 601 c 2
 216 612 l 2
 213 615 211 618 208 621 c 1
 152 566 l 1
 152 413 l 1
 166 427 l 1
 166 427 240 377 284 377 c 0
 300 377 313 380 323 383 c 0
 323 384 323 384 323 384 c 1
 366 427 l 1
 427 366 l 1
 279 218 l 1
 416 127 l 1
 427 116 l 1
 427 -134 l 1
 427 -134 426 -136 423 -139 c 2
 380 -181 l 2
 368 -193 332 -227 309 -227 c 1
 298 -216 l 1
 277 -189 250 -159 223 -131 c 0
 198 -106 172 -82 152 -64 c 1
 152 -134 l 2
 152 -134 151 -135 148 -138 c 2
 148 -139 l 2
 105 -181 l 2
 93 -193 57 -227 34 -227 c 0xb7
 2 -227 -35 -177 -66 -177 c 0x67
 -81 -177 -94 -184 -107 -194 c 2
 -141 -227 l 1xa7
152 362 m 1
 152 17 l 1
 172 0 215 -39 258 -82 c 0
 259 -82 l 2
 271 -94 l 2
 297 -120 322 -147 343 -173 c 1xa7
 351 -172 361 -168 373 -160 c 1
 373 81 l 1
 234 173 l 1
 223 184 l 1
 373 334 l 1
 340 367 l 1
 319 346 l 2
 307 334 287 323 252 323 c 0
 221 323 177 347 152 362 c 1
EndSplineSet
EndChar
StartChar: ae
Encoding: 230 230 189
Width: 550
Flags: W
HStem: 198 54<194.062 273> 407 20G<171 291 396 436> 407 20G<171 291 396 436>
VStem: 73 54<91 159> 273 54<138 198 252 316 338 350>
AnchorPoint: "blwmark" 300 0 basechar 0
AnchorPoint: "abvmark" 300 500 basechar 0
LayerCount: 2
Back
SplineSet
125 250 m 17
 100 325 l 1
 175 400 l 1
 300 375 l 1
 300 125 l 9
 175 0 l 1
 100 75 l 1
 100 175 l 1
 175 250 l 1
 175 250 193.964297096 225 250 225 c 3
 230.995781714 225 300 225 300 225 c 1033
300 100 m 1
 500 300 l 1
 400 400 l 25
 300 300 l 25
 300 100 l 25
 400 0 l 25
 500 100 l 1041
EndSplineSet
Fore
SplineSet
273 109 m 1x98
 273 198 l 1
 233 198 l 2
 189 199 167 215 161 221 c 2
 159 223 l 1
 127 191 l 1
 127 91 l 1
 191 27 l 1
 273 109 l 1x98
327 116 m 1
 416 27 l 1
 516 127 l 1
 527 116 l 1
 384 -27 l 1
 273 84 l 1
 273 87 l 1
 159 -27 l 1
 73 59 l 1
 73 159 l 1
 191 277 l 1
 195 273 l 2
 203 266 222 252 262 252 c 0
 263 252 263 252 264 252 c 2
 273 252 l 1
 273 284 l 1
 273 350 l 1
 159 373 l 1
 127 341 l 1
 152 266 l 1
 109 223 l 1
 98 234 l 1
 73 309 l 1
 191 427 l 1
 316 402 l 1
 327 391 l 1
 327 338 l 1
 416 427 l 1xd8
 527 316 l 1
 327 116 l 1
327 138 m 1
 473 284 l 1
 384 373 l 1
 327 316 l 1
 327 141 l 1
 327 138 l 1
EndSplineSet
EndChar
StartChar: divide
Encoding: 247 247 224
Width: 600
Flags: W
HStem: 273 54<116 484> 458 21G<279 319> 522 20G<281 321>
LayerCount: 2
Back
SplineSet
285 115 m 25
 315 85 l 1049
100 300 m 25
 500 300 l 1049
285 515 m 25
 315 485 l 1049
EndSplineSet
Fore
SplineSet
258 499 m 1
 301 542 l 1
 342 501 l 1
 299 458 l 1
 258 499 l 1
73 284 m 1
 116 327 l 1
 516 327 l 1
 527 316 l 1
 484 273 l 1
 84 273 l 1
 73 284 l 1
258 99 m 1
 301 142 l 1
 342 101 l 1
 299 58 l 1
 258 99 l 1
EndSplineSet
EndChar
StartChar: eng
Encoding: 331 331 600
Width: 400
Flags: W
HStem: -227 54<195.339 252.711> -177 54<92.4053 154.108> 407 20G<81 116 221 261> 407 20G<81 116 221 261>
VStem: 73 54<31 291 313 369> 273 54<-156.062 309>
AnchorPoint: "abvmark" 200 500 basechar 0
LayerCount: 2
Back
SplineSet
100 275 m 25
 225 400 l 1
 300 325 l 1
 300 -150 l 1
 300 -150 253 -200 225 -200 c 0
 193 -200 156 -150 125 -150 c 16
 87 -150 50 -200 50 -200 c 1033
85 30 m 25
 115 0 l 1049
115 370 m 25
 85 400 l 1049
100 385 m 9
 100 15 l 1025
EndSplineSet
Fore
SplineSet
127 401 m 1xac
 142 386 l 1
 127 371 l 1
 127 313 l 1
 241 427 l 1
 327 341 l 1
 327 -134 l 1
 327 -134 326 -136 323 -139 c 2
 280 -181 l 2
 268 -193 232 -227 209 -227 c 0xac
 177 -227 140 -177 109 -177 c 0x4c
 94 -177 80 -185 68 -194 c 2
 34 -227 l 1x8c
 23 -216 l 1
 23 -216 29 -208 39 -198 c 2
 81 -155 l 2
 95 -141 118 -123 141 -123 c 0x4c
 172 -123 209 -173 241 -173 c 0
 250 -173 260 -168 273 -160 c 1
 273 309 l 1
 209 373 l 1
 127 291 l 1
 127 31 l 1
 142 16 l 1
 99 -27 l 1
 84 -12 l 1
 73 -1 l 1
 58 14 l 1
 73 29 l 1
 73 259 l 1
 73 369 l 1
 58 384 l 1
 101 427 l 1
 116 412 l 1
 127 401 l 1xac
EndSplineSet
EndChar
StartChar: OE
Encoding: 338 338 116
Width: 1250
Flags: W
HStem: -27 54<277.421 442.684 802.421 969.248> 273 54<1030.5 1083.66> 323 54<972.029 1008.45> 465 21G<248 267 773 792> 507 20G<921 952> 523 54<1031.23 1086.56> 573 54<373.211 414 422 497.652 914.496 978.744>
VStem: 73 54<190.399 392.066> 267 16<70 473 523 580> 373 54<116 534> 598 57<180.367 432.068> 792 16<70 473 488.273 489 513 580> 898 54<116 321.456 338 484>
AnchorPoint: "blwmark" 600 0 basechar 0
AnchorPoint: "abvmark" 650 700 basechar 0
LayerCount: 2
Back
SplineSet
925 300 m 25
 925 300 972 350 1000 350 c 27
 1035 350 1015 300 1050 300 c 3
 1091 300 1125 350 1126 350 c 1049
800 550 m 1
 800 100 l 1025
925 500 m 1
 925 100 l 1025
800 600 m 1
 800 600 625 480 625 300 c 3
 625 134 720 0 900 0 c 3
 1019 0 1151 150 1152 150 c 1025
800 492 m 1
 800 492 895 600 955 600 c 3
 1019 600 992 550 1050 550 c 3
 1098 550 1125 600 1126 600 c 1025
275 550 m 1
 275 100 l 1025
402 550 m 1
 400 100 l 1025
275 600 m 1
 275 600 100 480 100 300 c 3
 100 134 195 0 375 0 c 3
 494 0 628 142 628 300 c 3
 628 512 536 600 425 600 c 3
 338 600 275 492 275 492 c 1025
EndSplineSet
Fore
SplineSet
302 616 m 1x93f8
 259 573 l 1
 259 573 245 563 225 545 c 0
 178 492 127 413 127 316 c 0
 127 229 154 150 205 95 c 1
 250 53 313 27 391 27 c 0
 436 27 484 48 525 82 c 1
 564 129 592 189 599 253 c 0
 598 263 598 273 598 284 c 0
 598 296 599 308 600 319 c 0
 595 417 569 486 530 528 c 0
 499 556 462 571 422 573 c 1
 429 566 l 1
 427 116 l 1
 384 73 l 1
 373 84 l 1
 375 534 l 1
 414 573 l 2
 413 573 410 573 409 573 c 0x93f8
 377 573 348 558 325 540 c 1
 310 522 302 508 302 508 c 2
 283 489 l 1
 283 70 l 1
 267 70 l 1
 267 473 l 1
 259 465 l 1
 248 476 l 1
 248 476 255 488 267 504 c 1
 267 580 l 1
 283 580 l 1
 283 523 l 2x95f8
 286 526 289 529 292 532 c 2
 334 574 l 2
 361 601 398 627 441 627 c 0
 488 627 531 611 566 576 c 2
 578 565 l 2
 607 536 629 495 642 439 c 1
 665 479 693 512 717 536 c 2
 759 578 l 2
 790 609 816 627 816 627 c 1
 827 616 l 1
 784 573 l 1
 784 573 770 563 750 545 c 0
 709 498 664 432 654 350 c 0
 655 339 655 328 655 316 c 0
 655 305 654 295 653 284 c 0
 659 209 685 143 730 95 c 1
 775 53 838 27 916 27 c 0
 999 27 1087 99 1134 143 c 2
 1167 176 l 1
 1167 177 l 2
 1168 177 l 2
 1179 166 l 1
 1177 164 l 2
 1175 162 1170 156 1162 148 c 2
 1119 105 l 2
 1079 65 978 -27 884 -27 c 0
 802 -27 739 1 693 47 c 2
 681 58 l 2
 651 88 630 125 616 168 c 1
 600 139 580 112 558 90 c 2
 516 48 l 2
 470 2 413 -27 359 -27 c 0
 277 -27 214 1 168 47 c 2
 156 58 l 2
 101 113 73 193 73 284 c 0
 73 396 141 485 192 536 c 2
 234 578 l 2
 265 609 291 627 291 627 c 1
 302 616 l 1x93f8
784 465 m 1
 773 476 l 1
 773 476 780 484 792 496 c 1
 792 580 l 1
 808 580 l 1
 808 513 l 1
 838 542 l 2
 839 543 l 0
 871 575 930 627 971 627 c 0x93f8
 993 627 1003 621 1011 613 c 2
 1023 602 l 2
 1028 597 1032 590 1036 584 c 0
 1043 580 1052 577 1066 577 c 0x95f8
 1080 577 1091 581 1101 587 c 2
 1141 627 l 2
 1142 627 l 2x93f8
 1153 616 l 2
 1151 614 1145 603 1134 592 c 2
 1091 549 l 2
 1078 536 1059 523 1034 523 c 0x95f8
 1016 523 1006 528 999 535 c 2
 988 546 l 2
 983 551 979 559 974 565 c 0
 967 570 956 573 939 573 c 0
 905 573 862 540 829 510 c 0
 828 509 827 508 827 508 c 1
 808 489 l 1
 808 70 l 1
 792 70 l 1
 792 473 l 1
 784 465 l 1
941 527 m 1xb9f8
 952 516 l 1
 952 338 l 1
 968 353 997 377 1016 377 c 0xb9f8
 1023 377 1027 375 1031 371 c 2
 1043 360 l 2
 1050 352 1051 338 1056 328 c 0
 1059 327 1062 327 1066 327 c 0xd1f8
 1082 327 1096 335 1107 343 c 2
 1141 377 l 2
 1142 377 l 2xb1f8
 1153 366 l 1
 1150 363 1145 356 1136 347 c 2
 1135 346 l 2
 1093 303 l 2
 1079 289 1057 273 1034 273 c 0xd1f8
 1027 273 1023 275 1019 279 c 2
 1007 290 l 2
 999 298 999 312 994 322 c 0
 992 323 988 323 984 323 c 0
 974 323 963 318 952 310 c 1
 952 116 l 1
 909 73 l 1
 898 84 l 1
 898 284 l 1
 898 484 l 1
 941 527 l 1xb9f8
EndSplineSet
EndChar
StartChar: oe
Encoding: 339 339 115
Width: 550
Flags: W
HStem: 407 20G<196 236 396 436> 407 20G<196 236 396 436>
VStem: 73 54<116 284> 273 54<138 284>
AnchorPoint: "blwmark" 300 0 basechar 0
AnchorPoint: "abvmark" 300 500 basechar 0
LayerCount: 2
Back
SplineSet
500 100 m 9
 400 0 l 25
 300 100 l 25
 300 300 l 25
 400 400 l 25
 500 300 l 1
 300 100 l 25
 200 0 l 1
 100 100 l 25
 100 300 l 25
 200 400 l 25
 300 300 l 1041
EndSplineSet
Fore
SplineSet
327 138 m 1x30
 473 284 l 1
 384 373 l 1
 327 316 l 1
 327 138 l 1x30
284 73 m 1
 184 -27 l 1
 73 84 l 1
 73 284 l 1
 216 427 l 1
 316 327 l 1
 416 427 l 1xb0
 527 316 l 1
 327 116 l 1
 416 27 l 1
 516 127 l 1
 527 116 l 1
 384 -27 l 1
 284 73 l 1
273 284 m 1
 184 373 l 1
 127 316 l 1
 127 116 l 1
 216 27 l 1
 273 84 l 1
 273 284 l 1
EndSplineSet
EndChar
StartChar: ascript
Encoding: 593 593 348
Width: 400
Flags: W
HStem: 333 54<232.603 271.942> 407 20G<196 227 296 327> 407 20G<196 227 296 327>
VStem: 73 54<59 284> 273 54<41 87 109 356>
AnchorPoint: "blwmark" 200 0 basechar 0
AnchorPoint: "abvmark" 225 500 basechar 0
LayerCount: 2
Back
SplineSet
375 50 m 25
 325 0 l 1
 300 25 l 1
 300 400 l 1
 300 400 278 360 250 360 c 0
 222 360 200 400 200 400 c 9
 100 300 l 1
 100 75 l 17
 175 0 l 1
 300 125 l 1049
EndSplineSet
Fore
SplineSet
273 356 m 1x98
 266 349 l 2
 257 340 246 333 234 333 c 0
 222 333 211 340 202 349 c 2
 191 361 l 2
 188 364 184 368 182 371 c 2
 127 316 l 1
 127 91 l 2
 127 56 172 46 191 27 c 1
 273 109 l 1
 273 356 l 1x98
273 87 m 1
 159 -27 l 1
 73 59 l 1
 73 284 l 1
 216 427 l 1
 227 416 l 2
 227 416 231 407 239 398 c 0
 246 392 256 387 266 387 c 0
 270 387 273 387 278 389 c 2
 316 427 l 1xd8
 327 416 l 1
 327 41 l 1
 341 27 l 1
 391 77 l 1
 402 66 l 1
 309 -27 l 1
 273 9 l 1
 273 87 l 1
EndSplineSet
EndChar
StartChar: caron
Encoding: 711 711 245
Width: 400
Flags: W
HStem: 498 229
VStem: 173 54<541 590.844>
LayerCount: 2
Back
SplineSet
100 700 m 25
 100 700 200 625 200 525 c 1
 200 675 300 700 300 700 c 1025
EndSplineSet
Fore
SplineSet
227 546 m 0
 227 544 227 543 227 541 c 2
 184 498 l 1
 173 509 l 2
 173 511 173 510 173 512 c 0
 173 529 170 543 165 558 c 0
 152 599 127 633 105 656 c 0
 93 667 84 673 84 673 c 1
 73 684 l 1
 116 727 l 1
 116 727 126 719 141 704 c 2
 153 692 l 2
 169 676 188 654 203 627 c 1
 209 637 216 646 223 653 c 2
 266 696 l 2
 291 721 316 727 316 727 c 1
 327 716 l 1
 284 673 l 1
 284 673 273 671 258 661 c 1
 250 648 242 632 236 612 c 0
 231 593 227 571 227 546 c 0
EndSplineSet
EndChar
StartChar: ring
Encoding: 730 730 184
Width: 400
Flags: W
HStem: 498 54<165.279 271.469> 698 54<128.531 234.721>
VStem: 73 54<590.646 696.491> 273 54<553.509 659.354>
LayerCount: 2
Back
SplineSet
100 650 m 0
 100 710 115 725 175 725 c 0
 250 725 300 675 300 600 c 0
 300 540 285 525 225 525 c 0
 150 525 100 575 100 650 c 0
EndSplineSet
Fore
SplineSet
73 634 m 0
 73 664 77 683 88 694 c 2
 131 737 l 2
 142 748 161 752 191 752 c 0
 229 752 259 739 281 717 c 2
 293 706 l 2
 315 684 327 653 327 616 c 0
 327 586 323 567 312 556 c 2
 269 513 l 2
 258 502 239 498 209 498 c 0
 171 498 141 511 119 533 c 2
 107 544 l 2
 85 566 73 597 73 634 c 0
127 666 m 0
 127 632 137 603 156 581 c 1
 177 563 207 552 241 552 c 0
 253 552 262 553 271 554 c 1
 272 562 273 572 273 584 c 0
 273 618 263 647 244 669 c 1
 223 687 193 698 159 698 c 0
 147 698 138 697 129 696 c 1
 128 688 127 678 127 666 c 0
EndSplineSet
EndChar
StartChar: ogonek
Encoding: 731 731 283
Width: 400
Flags: W
HStem: -227 254
VStem: 98 54<-129 -91>
LayerCount: 2
Back
SplineSet
200 0 m 25
 125 -75 l 1
 125 -150 l 9
 225 -200 l 25
 275 -150 l 1049
EndSplineSet
Fore
SplineSet
216 27 m 1
 227 16 l 1
 152 -59 l 1
 152 -129 l 1
 241 -173 l 2
 241 -173 247 -167 248 -166 c 2
 291 -123 l 1
 302 -134 l 1
 209 -227 l 1
 109 -177 l 1
 98 -166 l 1
 98 -91 l 1
 216 27 l 1
EndSplineSet
EndChar
StartChar: tilde
Encoding: 732 732 168
Width: 400
Flags: W
HStem: 498 21G<23 54> 523 54<177.002 306.099> 548 54<93.5948 222.998>
LayerCount: 2
Back
SplineSet
50 525 m 17
 50 525 90 575 125 575 c 27
 184 575 216 550 275 550 c 27
 310 550 350 600 350 600 c 1033
EndSplineSet
Fore
SplineSet
34 498 m 1xa0
 23 509 l 1
 23 509 29 516 37 524 c 2
 79 567 l 2
 80 568 l 0
 95 583 119 602 141 602 c 0xa0
 200 602 232 577 291 577 c 0
 307 577 323 587 337 598 c 2
 366 627 l 1
 377 616 l 1
 377 616 371 609 363 601 c 2
 321 558 l 2
 306 543 281 523 259 523 c 0xc0
 200 523 168 548 109 548 c 0
 93 548 78 539 63 527 c 2
 34 498 l 1xa0
EndSplineSet
EndChar
StartChar: tridotright
Encoding: 4347 4347 895
Width: 500
Flags: W
LayerCount: 2
Back
SplineSet
385 190 m 25
 415 160 l 1049
135 350 m 25
 165 320 l 1049
135 30 m 25
 165 0 l 1049
EndSplineSet
Fore
SplineSet
108 14 m 1
 151 57 l 1
 192 16 l 1
 149 -27 l 1
 108 14 l 1
108 334 m 1
 151 377 l 1
 192 336 l 1
 149 293 l 1
 108 334 l 1
358 174 m 1
 401 217 l 1
 442 176 l 1
 399 133 l 1
 358 174 l 1
EndSplineSet
EndChar
StartChar: figuredash
Encoding: 8210 8210 908
Width: 400
Flags: W
HStem: 173 54<116 284>
VStem: 73 254
LayerCount: 2
Back
SplineSet
100 200 m 25
 300 200 l 1049
EndSplineSet
Fore
SplineSet
73 184 m 1
 116 227 l 1
 316 227 l 1
 327 216 l 1
 284 173 l 1
 84 173 l 1
 73 184 l 1
EndSplineSet
EndChar
StartChar: endash
Encoding: 8211 8211 257
Width: 400
Flags: W
HStem: 173 54<66 334>
LayerCount: 2
Back
SplineSet
50 200 m 25
 350 200 l 1049
EndSplineSet
Fore
SplineSet
23 184 m 1
 66 227 l 1
 366 227 l 1
 377 216 l 1
 334 173 l 1
 34 173 l 1
 23 184 l 1
EndSplineSet
EndChar
StartChar: quoteleft
Encoding: 8216 8216 254
Width: 300
Flags: W
HStem: 418 159
VStem: 113 99
LayerCount: 2
Back
SplineSet
170 445 m 25
 140 475 l 1
 140 505 l 25
 185 550 l 1049
EndSplineSet
Fore
SplineSet
197 461 m 1
 154 418 l 1
 113 459 l 1
 113 489 l 1
 201 577 l 1
 212 566 l 1
 167 521 l 1
 167 491 l 1
 197 461 l 1
EndSplineSet
EndChar
StartChar: quotereversed
Encoding: 8219 8219 928
Width: 300
Flags: W
HStem: 448 159
VStem: 113 99
LayerCount: 2
Back
SplineSet
170 580 m 25
 140 550 l 1
 140 520 l 25
 185 475 l 1049
EndSplineSet
Fore
SplineSet
154 607 m 1
 197 564 l 1
 167 534 l 1
 167 504 l 2
 167 504 168 503 169 502 c 2
 212 459 l 1
 201 448 l 1
 113 536 l 1
 113 566 l 1
 154 607 l 1
EndSplineSet
EndChar
StartChar: quotedblrev
Encoding: 8223 8223 929
Width: 500
Flags: W
HStem: 448 159
VStem: 113 299
LayerCount: 2
Back
SplineSet
170 580 m 25
 140 550 l 1
 140 520 l 25
 185 475 l 1049
370 580 m 25
 340 550 l 1
 340 520 l 25
 385 475 l 1049
EndSplineSet
Fore
SplineSet
354 607 m 1
 397 564 l 1
 367 534 l 1
 367 504 l 2
 367 504 368 503 369 502 c 2
 412 459 l 1
 401 448 l 1
 313 536 l 1
 313 566 l 1
 354 607 l 1
154 607 m 1
 197 564 l 1
 167 534 l 1
 167 504 l 2
 167 504 168 503 169 502 c 2
 212 459 l 1
 201 448 l 1
 113 536 l 1
 113 566 l 1
 154 607 l 1
EndSplineSet
EndChar
StartChar: dagger
Encoding: 8224 8224 262
Width: 400
Flags: W
HStem: -177 21G<173 204> 407 20G<46 86 237 336> 407 20G<46 86 237 336>
VStem: 163 74<121.359 343 407 533.937> 173 54<-134 47.5149>
LayerCount: 2
Back
SplineSet
50 400 m 25
 100 350 l 25
 300 400 l 25
 350 350 l 1049
175 550 m 1
 175 550 188 459 190 400 c 24
 198 186 200 -150 200 -150 c 1
 200 -150 203 186 210 400 c 24
 213 478 225 600 225 600 c 9
 175 550 l 1
EndSplineSet
Fore
SplineSet
148 534 m 1xd0
 241 627 l 1
 252 616 l 1
 252 616 240 494 237 416 c 0
 237 413 237 410 237 407 c 2xd0
 316 427 l 1
 377 366 l 1
 334 323 l 1
 284 373 l 1
 235 361 l 1
 229 149 227 -134 227 -134 c 2
 184 -177 l 1
 173 -166 l 1xc8
 173 -166 172 130 165 343 c 1
 84 323 l 1
 23 384 l 1
 66 427 l 1
 116 377 l 1
 163 389 l 1
 161 448 148 534 148 534 c 1xd0
EndSplineSet
EndChar
StartChar: refmark
Encoding: 8251 8251 953
Width: 600
Flags: W
HStem: 458 21G<304 344> 522 5G<96 136 306 346 496 527>
LayerCount: 2
Back
SplineSet
500 500 m 25
 100 100 l 1049
100 500 m 25
 500 100 l 1049
485 340 m 25
 515 310 l 1049
260 115 m 25
 290 85 l 1049
310 515 m 25
 340 485 l 1049
85 290 m 25
 115 260 l 1049
EndSplineSet
Fore
SplineSet
58 274 m 1
 101 317 l 1
 142 276 l 1
 99 233 l 1
 58 274 l 1
283 499 m 1
 326 542 l 1
 367 501 l 1
 324 458 l 1
 283 499 l 1
233 99 m 1
 276 142 l 1
 317 101 l 1
 274 58 l 1
 233 99 l 1
458 324 m 1
 501 367 l 1
 542 326 l 1
 499 283 l 1
 458 324 l 1
73 484 m 1
 116 527 l 1
 316 327 l 1
 516 527 l 1
 527 516 l 1
 327 316 l 1
 527 116 l 1
 484 73 l 1
 284 273 l 1
 84 73 l 1
 73 84 l 1
 273 284 l 1
 73 484 l 1
EndSplineSet
EndChar
StartChar: bracketquillright
Encoding: 8262 8262 917
Width: 300
Flags: W
HStem: -177 54<66 173> 273 54<66 173> 673 54<66 173>
VStem: 173 54<-123 273 327 673>
LayerCount: 2
Back
SplineSet
50 300 m 25
 200 300 l 1049
50 700 m 25
 200 700 l 25
 200 -150 l 25
 50 -150 l 1033
EndSplineSet
Fore
SplineSet
23 684 m 1
 66 727 l 1
 216 727 l 1
 227 716 l 1
 227 316 l 1
 227 -134 l 1
 184 -177 l 1
 34 -177 l 1
 23 -166 l 1
 66 -123 l 1
 173 -123 l 1
 173 273 l 1
 34 273 l 1
 23 284 l 1
 66 327 l 1
 173 327 l 1
 173 673 l 1
 34 673 l 1
 23 684 l 1
EndSplineSet
EndChar
StartChar: Euro
Encoding: 8364 8364 264
Width: 550
Flags: W
HStem: 198 54<66 123 177 334> 348 54<66 123 177 384> 498 21G<425.667 479>
VStem: 123 54<121 198 252 348>
LayerCount: 2
Back
SplineSet
50 225 m 25
 350 225 l 1049
50 375 m 25
 400 375 l 1049
475 525 m 9
 350 600 l 25
 150 400 l 25
 150 100 l 25
 350 0 l 25
 500 150 l 1041
EndSplineSet
Fore
SplineSet
502 541 m 1
 459 498 l 1
 334 573 l 2
 334 573 191 430 177 416 c 1
 177 402 l 1
 416 402 l 1
 427 391 l 1
 384 348 l 1
 177 348 l 1
 177 252 l 1
 366 252 l 1
 377 241 l 1
 334 198 l 1
 177 198 l 1
 177 121 l 1
 366 27 l 2
 366 27 464 125 473 134 c 2
 516 177 l 1
 527 166 l 1
 334 -27 l 1
 134 73 l 1
 123 84 l 1
 123 198 l 1
 34 198 l 1
 23 209 l 1
 66 252 l 1
 123 252 l 1
 123 348 l 1
 34 348 l 1
 23 359 l 1
 66 402 l 1
 141 402 l 1
 366 627 l 1
 491 552 l 1
 502 541 l 1
EndSplineSet
EndChar
StartChar: therefore
Encoding: 8756 8756 896
Width: 600
Flags: W
LayerCount: 2
Back
SplineSet
435 30 m 25
 465 0 l 1049
285 350 m 25
 315 320 l 1049
135 30 m 25
 165 0 l 1049
EndSplineSet
Fore
SplineSet
108 14 m 1
 151 57 l 1
 192 16 l 1
 149 -27 l 1
 108 14 l 1
258 334 m 1
 301 377 l 1
 342 336 l 1
 299 293 l 1
 258 334 l 1
408 14 m 1
 451 57 l 1
 492 16 l 1
 449 -27 l 1
 408 14 l 1
EndSplineSet
EndChar
StartChar: bracketangleright
Encoding: 9297 9297 931
Width: 400
Flags: W
HStem: -177 21G<23 54>
LayerCount: 2
Back
SplineSet
75 675 m 17
 75 675 155.283203125 553.91796875 175 525 c 0
 220 459 350 250 350 250 c 1
 350 250 196 60 150 0 c 0
 133.083984375 -22.064453125 50 -150 50 -150 c 1033
EndSplineSet
Fore
SplineSet
91 702 m 1
 102 691 l 1
 102 691 182 570 202 541 c 0
 247 475 377 266 377 266 c 1
 377 266 223 76 177 16 c 0
 160 -6 77 -134 77 -134 c 1
 34 -177 l 1
 23 -166 l 1
 23 -166 106 -38 123 -16 c 0
 169 44 323 234 323 234 c 1
 323 234 193 443 148 509 c 0
 128 538 48 659 48 659 c 1
 91 702 l 1
EndSplineSet
EndChar
StartChar: luslst
Encoding: 11788 11788 902
Width: 300
Flags: W
HStem: 423 304
VStem: 23 254
LayerCount: 2
Back
SplineSet
50 700 m 25
 250 450 l 1049
EndSplineSet
Fore
SplineSet
66 727 m 1
 77 716 l 1
 277 466 l 1
 234 423 l 1
 223 434 l 1
 23 684 l 1
 66 727 l 1
EndSplineSet
EndChar
StartChar: ramus
Encoding: 11801 11801 911
Width: 600
Flags: W
HStem: -177 21G<73 104> 513 20G<215 246>
VStem: 48 54<133.847 334> 192 54<328.125 490> 333 54<539.122 646>
LayerCount: 2
Back
SplineSet
360 662 m 1
 360 662 360 625 360 600 c 27
 360 551 395 475 395 475 c 1
 395 475 485 516 535 550 c 24
 555 564 572 588 572 588 c 1025
75 350 m 1
 75 350 75 274 75 225 c 27
 75 127 154 -25 154 -25 c 1
 154 -25 326 57 425 125 c 24
 465 153 500 200 500 200 c 1025
219 506 m 1
 219 506 219 449 219 412 c 27
 219 339 275 225 275 225 c 1
 275 225 407 287 481 338 c 24
 511 359 538 394 538 394 c 1025
100 -150 m 25
 500 700 l 1049
EndSplineSet
Fore
SplineSet
84 -177 m 1
 73 -166 l 1
 130 -44 l 1
 127 -41 l 1
 127 -41 48 111 48 209 c 2
 48 334 l 1
 91 377 l 1
 102 366 l 1
 102 241 l 2
 102 173 141 78 164 27 c 1
 249 208 l 1
 248 209 l 1
 248 209 192 323 192 396 c 2
 192 490 l 1
 235 533 l 1
 246 522 l 1
 246 428 l 2
 246 383 268 322 284 282 c 1
 368 460 l 1
 364 469 333 538 333 584 c 2
 333 646 l 1
 376 689 l 1
 387 678 l 1
 387 616 l 2
 387 592 396 562 404 537 c 1
 473 684 l 1
 516 727 l 1
 527 716 l 1
 431 511 l 1
 460 525 513 552 548 575 c 1
 588 615 l 1
 599 604 l 1
 599 604 591 592 579 580 c 2
 536 538 l 2
 531 533 525 527 519 523 c 0
 487 501 438 476 407 461 c 1
 314 263 l 1
 355 283 442 327 497 365 c 0
 500 367 505 371 506 372 c 0
 510 377 511 378 511 378 c 2
 554 421 l 1
 565 410 l 1
 565 410 554 396 538 380 c 2
 496 337 l 2
 487 328 476 319 465 311 c 0
 413 275 334 235 290 213 c 1
 197 15 l 1
 250 41 366 101 441 152 c 0
 446 156 453 161 457 164 c 0
 467 175 473 184 473 184 c 1
 516 227 l 1
 527 216 l 1
 527 216 511 196 490 174 c 0
 489 173 490 173 489 172 c 2
 446 130 l 2
 435 119 422 107 409 98 c 0
 338 49 230 -7 174 -35 c 1
 127 -134 l 1
 84 -177 l 1
EndSplineSet
EndChar
StartChar: llslst
Encoding: 11805 11805 905
Width: 300
Flags: W
HStem: -177 304
VStem: 23 254
LayerCount: 2
Back
SplineSet
50 -150 m 25
 250 100 l 1049
EndSplineSet
Fore
SplineSet
34 -177 m 1
 23 -166 l 1
 223 84 l 1
 266 127 l 1
 277 116 l 1
 77 -134 l 1
 34 -177 l 1
EndSplineSet
EndChar
StartChar: brackettopright
Encoding: 11811 11811 923
Width: 300
Flags: W
HStem: 673 54<66 173>
VStem: 173 54<316 673>
LayerCount: 2
Back
SplineSet
50 700 m 25
 200 700 l 17
 200 300 l 1025
EndSplineSet
Fore
SplineSet
23 684 m 1
 66 727 l 1
 216 727 l 1
 227 716 l 1
 227 316 l 1
 184 273 l 1
 173 284 l 1
 173 673 l 1
 34 673 l 1
 23 684 l 1
EndSplineSet
EndChar
StartChar: bracketbottomleft
Encoding: 11812 11812 924
Width: 300
Flags: W
HStem: -177 54<127 234>
VStem: 73 54<-123 284>
LayerCount: 2
Back
SplineSet
100 300 m 1
 100 -150 l 9
 250 -150 l 1033
EndSplineSet
Fore
SplineSet
116 327 m 1
 127 316 l 1
 127 -123 l 1
 266 -123 l 1
 277 -134 l 1
 234 -177 l 1
 84 -177 l 1
 73 -166 l 1
 73 284 l 1
 116 327 l 1
EndSplineSet
EndChar
StartChar: bracketbottomright
Encoding: 11813 11813 925
Width: 300
Flags: W
HStem: -177 54<66 173>
VStem: 173 54<-123 284>
LayerCount: 2
Back
SplineSet
200 300 m 1
 200 -150 l 9
 50 -150 l 1033
EndSplineSet
Fore
SplineSet
216 327 m 1
 227 316 l 1
 227 -134 l 1
 184 -177 l 1
 34 -177 l 1
 23 -166 l 1
 66 -123 l 1
 173 -123 l 1
 173 284 l 1
 216 327 l 1
EndSplineSet
EndChar
StartChar: obiit
Encoding: 42827 42827 866
Width: 400
Flags: W
HStem: 198 54<41 73 127 273 327 359> 407 20G<196 236> 407 20G<196 236>
VStem: 73 54<84 198 252 284> 273 54<116 198 252 316>
LayerCount: 2
Back
SplineSet
25 225 m 25
 375 225 l 1049
200 400 m 25
 100 300 l 25
 100 100 l 25
 200 0 l 25
 300 100 l 25
 300 300 l 25
 200 400 l 25
EndSplineSet
Fore
SplineSet
184 373 m 1x98
 127 316 l 1
 127 252 l 1
 273 252 l 1
 273 284 l 2
 273 334 210 347 184 373 c 1x98
73 284 m 1
 216 427 l 1xd8
 327 316 l 1
 327 252 l 1
 391 252 l 1
 402 241 l 1
 359 198 l 1
 327 198 l 1
 327 116 l 1
 184 -27 l 1
 73 84 l 1
 73 198 l 1
 9 198 l 1
 -2 209 l 1
 41 252 l 1
 73 252 l 1
 73 284 l 1
127 198 m 1
 127 116 l 2
 127 66 190 53 216 27 c 1
 273 84 l 1
 273 198 l 1
 127 198 l 1
EndSplineSet
EndChar
StartChar: psquirrel
Encoding: 42837 42837 870
Width: 500
Flags: W
HStem: -177 21G<173 204> 5 60<227 271.621> 23 54<57 171.162> 407 20G<21 52 181 221 296 336> 407 20G<21 52 181 221 296 336>
VStem: 48 54<133.545 324.384> 173 54<-134 5 72 316 338 369> 373 54<116 284>
AnchorPoint: "abvmark" 300 500 basechar 0
LayerCount: 2
Back
SplineSet
200 300 m 25
 300 400 l 1
 400 300 l 25
 400 100 l 1
 300 0 l 1
 300 0 298 50 25 50 c 1
 25 50 75 156 75 200 c 3
 75 332 25 400 25 400 c 1033
185 400 m 25
 215 370 l 1049
200 385 m 1
 200 -150 l 1025
EndSplineSet
Fore
SplineSet
158 384 m 1xb7
 201 427 l 1
 227 401 l 1
 242 386 l 1
 227 371 l 1
 227 338 l 1
 316 427 l 1
 427 316 l 1
 427 116 l 1
 284 -27 l 1
 273 -16 l 1
 273 -16 273 -15 272 -13 c 0
 264 -7 250 -1 227 5 c 1xd7
 227 -134 l 1
 184 -177 l 1
 173 -166 l 1
 173 15 l 1
 134 20 81 23 9 23 c 1
 -2 34 l 1
 -2 34 48 140 48 184 c 0
 48 316 -2 384 -2 384 c 1
 41 427 l 1
 52 416 l 1
 52 416 102 348 102 216 c 0
 102 181 70 106 57 77 c 1
 104 77 142 75 173 72 c 1
 173 284 l 1
 173 369 l 1
 158 384 l 1xb7
227 316 m 1
 227 65 l 1
 281 56 302 43 310 35 c 2
 317 28 l 1
 373 84 l 1
 373 284 l 1
 284 373 l 1
 227 316 l 1
EndSplineSet
EndChar
StartChar: rrotunda
Encoding: 42843 42843 96
Width: 300
Flags: W
HStem: 407 20G<96 136> 407 20G<96 136>
VStem: 23 254
AnchorPoint: "blwmark" 150 0 basechar 0
AnchorPoint: "abvmark" 150 500 basechar 0
LayerCount: 2
Back
SplineSet
250 50 m 25
 200 0 l 1
 100 200 l 25
 200 300 l 1
 100 400 l 1
 50 350 l 1049
EndSplineSet
Fore
SplineSet
266 77 m 1xa0
 277 66 l 1
 184 -27 l 1
 173 -16 l 1
 73 184 l 1
 173 284 l 1
 84 373 l 1
 34 323 l 1
 23 334 l 1
 116 427 l 1
 227 316 l 1
 127 216 l 1
 219 31 l 1
 266 77 l 1xa0
EndSplineSet
EndChar
StartChar: rumrotunda
Encoding: 42845 42845 705
Width: 500
Flags: W
HStem: -177 21G<173 204> -27 54<351 414.686> 407 20G<96 136> 407 20G<96 136>
VStem: 323 54<41.2422 179>
LayerCount: 2
Back
SplineSet
300 225 m 1
 350 200 l 1
 350 200 350 139 350 100 c 27
 350 3 200 -150 200 -150 c 1025
450 50 m 17
 450 50 431 0 375 0 c 3
 281 0 250 50 250 50 c 9
 200 0 l 1
 100 200 l 25
 200 300 l 1
 100 400 l 1
 50 350 l 1049
EndSplineSet
Fore
SplineSet
466 77 m 1xe8
 477 66 l 1
 477 66 472 52 459 39 c 2
 416 -4 l 2
 404 -16 385 -27 359 -27 c 0
 344 -27 330 -25 318 -23 c 1
 276 -84 227 -134 227 -134 c 2
 184 -177 l 1
 173 -166 l 1
 173 -166 245 -92 289 -15 c 1
 266 -6 251 5 243 13 c 2
 234 22 l 1
 184 -27 l 1
 173 -16 l 1
 73 184 l 1
 173 284 l 1
 84 373 l 1
 34 323 l 1
 23 334 l 1
 116 427 l 1
 227 316 l 1
 127 216 l 1
 219 31 l 1
 266 77 l 1
 277 66 l 1
 277 66 278 64 280 61 c 0
 288 54 299 46 315 40 c 1
 320 55 323 70 323 84 c 2
 323 179 l 1
 284 198 l 1
 273 209 l 1
 316 252 l 1
 366 227 l 1
 377 216 l 1
 377 116 l 2
 377 90 367 60 351 30 c 1
 363 28 376 27 391 27 c 0
 403 27 413 29 423 33 c 0
 423 34 l 1
 466 77 l 1xe8
EndSplineSet
EndChar
StartChar: mum
Encoding: 42867 42867 587
Width: 825
Flags: W
HStem: -177 21G<498 529> -27 54<676 739.686> 407 20G<81 116 221 261 421 461> 407 20G<81 116 221 261 421 461>
VStem: 73 54<31 291 313 369> 273 54<31 291 313 341> 473 54<31 341> 648 54<41.2422 179>
LayerCount: 2
Back
SplineSet
500 15 m 1
 500 325 l 25
 425 400 l 1
 300 275 l 1041
285 30 m 9
 315 0 l 1041
300 15 m 1
 300 325 l 25
 225 400 l 1
 100 275 l 1041
85 30 m 9
 115 0 l 1041
115 370 m 9
 85 400 l 1041
100 385 m 9
 100 15 l 1025
625 225 m 1
 675 200 l 1
 675 200 675 139 675 100 c 27
 675 3 525 -150 525 -150 c 1025
775 50 m 17
 775 50 756 0 700 0 c 3
 606 0 565 50 565 50 c 9
 515 0 l 25
 485 30 l 1025
EndSplineSet
Fore
SplineSet
791 77 m 1xef
 802 66 l 1
 802 66 797 52 784 39 c 2
 741 -4 l 2
 729 -16 710 -27 684 -27 c 0
 669 -27 655 -25 643 -23 c 1
 601 -84 552 -134 552 -134 c 1
 509 -177 l 1
 498 -166 l 1
 498 -166 570 -93 614 -16 c 1
 580 -5 560 13 553 20 c 2
 549 23 l 1
 499 -27 l 1
 484 -12 l 1
 473 -1 l 1
 458 14 l 1
 473 29 l 1
 473 309 l 2
 473 344 428 354 409 373 c 1
 327 291 l 1
 327 31 l 1
 342 16 l 1
 299 -27 l 1
 284 -12 l 1
 273 -1 l 1
 258 14 l 1
 273 29 l 1
 273 259 l 1
 273 309 l 2
 273 344 228 354 209 373 c 1
 127 291 l 1
 127 31 l 1
 142 16 l 1
 99 -27 l 1
 84 -12 l 1
 73 -1 l 1
 58 14 l 1
 73 29 l 1
 73 259 l 1
 73 369 l 1
 58 384 l 1
 101 427 l 1
 116 412 l 1
 127 401 l 1
 142 386 l 1
 127 371 l 1
 127 313 l 1
 241 427 l 1
 327 341 l 1
 327 313 l 1
 441 427 l 1
 527 341 l 1
 527 31 l 1
 531 27 l 1
 581 77 l 1
 588 70 l 2
 597 62 614 50 640 40 c 1
 645 56 648 70 648 84 c 2
 648 179 l 1
 609 198 l 1
 598 209 l 1
 641 252 l 1
 691 227 l 1
 702 216 l 1
 702 116 l 2
 702 90 692 60 676 30 c 1
 688 28 701 27 716 27 c 0
 728 27 738 29 748 33 c 0
 748 34 l 1
 791 77 l 1xef
EndSplineSet
EndChar
StartChar: num
Encoding: 42868 42868 597
Width: 625
Flags: W
HStem: -177 21G<298 329> -27 54<476 539.686> 407 20G<81 116 221 261> 407 20G<81 116 221 261>
VStem: 73 54<31 291 313 369> 273 54<31 341> 448 54<41.2422 179>
LayerCount: 2
Back
SplineSet
425 225 m 1
 475 200 l 1
 475 200 475 139 475 100 c 27
 475 3 325 -150 325 -150 c 1025
575 50 m 17
 575 50 556 0 500 0 c 3
 406 0 365 50 365 50 c 1
 315 0 l 25
 285 30 l 1025
300 15 m 1
 300 325 l 25
 225 400 l 1
 100 275 l 1049
85 30 m 25
 115 0 l 1049
115 370 m 25
 85 400 l 1049
100 385 m 9
 100 15 l 1025
EndSplineSet
Fore
SplineSet
591 77 m 1xee
 602 66 l 1
 602 66 597 52 584 39 c 2
 541 -4 l 2
 529 -16 510 -27 484 -27 c 0
 469 -27 455 -25 443 -23 c 1
 401 -84 352 -134 352 -134 c 2
 309 -177 l 1
 298 -166 l 1
 298 -166 370 -93 414 -16 c 1
 380 -5 360 13 353 20 c 2
 349 23 l 1
 299 -27 l 1
 284 -12 l 1
 273 -1 l 1
 258 14 l 1
 273 29 l 1
 273 309 l 2
 273 344 228 354 209 373 c 1
 127 291 l 1
 127 31 l 1
 142 16 l 1
 99 -27 l 1
 84 -12 l 1
 73 -1 l 1
 58 14 l 1
 73 29 l 1
 73 259 l 1
 73 369 l 1
 58 384 l 1
 101 427 l 1
 116 412 l 1
 127 401 l 1
 142 386 l 1
 127 371 l 1
 127 313 l 1
 241 427 l 1
 327 341 l 1
 327 31 l 1
 331 27 l 1
 381 77 l 1
 388 70 l 2
 397 62 414 50 440 40 c 1
 445 56 448 70 448 84 c 2
 448 179 l 1
 409 198 l 1
 398 209 l 1
 441 252 l 1
 491 227 l 1
 502 216 l 1
 502 116 l 2
 502 90 492 60 476 30 c 1
 488 28 501 27 516 27 c 0
 528 27 538 29 548 33 c 0
 548 34 l 1
 591 77 l 1xee
EndSplineSet
EndChar
StartChar: rum
Encoding: 42869 42869 704
Width: 450
Flags: W
HStem: -177 21G<123 151> 407 20G<81 116 196 227 396 427> 407 20G<81 116 196 227 246 306 396 427>
VStem: 73 54<31 316 338 369> 273 54<92.9828 330.498 387 479>
LayerCount: 2
Back
SplineSet
250 525 m 1
 300 500 l 1
 300 500 300 406 300 250 c 3
 300 -37.2507615308 150 -150 150 -150 c 1025
400 400 m 17
 400 400 381 350 325 350 c 3
 231 350 200 400 200 400 c 9
 100 300 l 1025
85 30 m 25
 115 0 l 1049
85 400 m 25
 115 370 l 1049
100 385 m 9
 100 15 l 1025
EndSplineSet
Fore
SplineSet
58 384 m 1xd8
 101 427 l 1
 116 412 l 1
 127 401 l 1
 142 386 l 1
 127 371 l 1
 127 338 l 1
 216 427 l 1
 227 416 l 1
 227 416 228 414 230 411 c 0
 239 403 253 394 273 387 c 1
 273 479 l 1
 234 498 l 1
 223 509 l 1
 266 552 l 1
 316 527 l 1
 327 516 l 1
 327 377 l 1
 331 377 336 377 341 377 c 0
 353 377 363 379 373 383 c 0
 373 384 l 1
 416 427 l 1
 427 416 l 1
 427 416 422 402 409 389 c 2
 366 346 l 2
 357 337 344 329 327 325 c 1
 327 266 l 2
 327 38 232 -81 193 -120 c 2
 151 -162 l 2
 141 -172 134 -177 134 -177 c 1
 123 -166 l 1
 157 -131 l 1
 201 -79 273 35 273 234 c 2
 273 326 l 1
 229 333 205 351 193 363 c 2
 184 372 l 1
 127 316 l 1
 127 31 l 1
 142 16 l 1
 99 -27 l 1
 84 -12 l 1
 73 -1 l 1
 58 14 l 1
 73 29 l 1
 73 284 l 1
 73 369 l 1
 58 384 l 1xd8
EndSplineSet
EndChar
StartChar: um
Encoding: 42872 42872 958
Width: 400
Flags: W
HStem: -177 21G<73 104> 323 54<239.786 301.796> 407 20G<196 227 357 377> 407 20G<196 227 357 377>
VStem: 73 54<-134 8.62428 262 284> 273 54<116 138>
LayerCount: 2
Back
SplineSet
100 -150 m 25
 100 -150 100 -58 100 0 c 3
 100 141 350 400 350 400 c 17
 350 400 303 350 275 350 c 0
 231 350 200 400 200 400 c 9
 100 300 l 1
 100 240 l 1
 300 160 l 1
 300 100 l 1
 200 0 l 17
 200 0 154 50 125 50 c 24
 96 50 50 0 50 0 c 1025
EndSplineSet
Fore
SplineSet
269 325 m 1xcc
 266 324 262 323 259 323 c 0
 235 323 216 338 203 351 c 2
 191 362 l 2
 191 363 l 0
 188 366 185 368 183 371 c 2
 127 316 l 1
 127 262 l 1
 196 235 l 1
 222 269 248 300 269 325 c 1xcc
186 173 m 1
 166 141 150 107 139 77 c 1
 140 77 140 77 141 77 c 0
 164 77 196 47 210 33 c 2
 216 27 l 1
 273 84 l 1
 273 138 l 1
 186 173 l 1
84 -177 m 1
 73 -166 l 1
 73 -16 l 2
 73 -8 74 1 75 9 c 1
 64 2 54 -7 47 -14 c 2
 34 -27 l 1
 23 -16 l 2
 23 -16 25 -14 29 -10 c 2
 29 -9 l 2
 72 33 l 2
 75 36 80 41 85 46 c 0
 98 84 121 126 148 167 c 0
 151 172 155 178 159 183 c 1
 84 213 l 1
 73 224 l 1
 73 284 l 1
 216 427 l 1
 227 416 l 2
 227 416 231 408 239 399 c 0
 252 388 271 377 291 377 c 0
 312 377 342 404 357 418 c 2
 366 427 l 1xec
 377 416 l 1
 377 415 l 0
 375 413 371 410 365 403 c 0
 341 377 283 313 231 241 c 0
 227 236 224 230 220 225 c 1
 316 187 l 1
 327 176 l 1
 327 116 l 1
 184 -27 l 1
 173 -16 l 1
 173 -15 l 0
 161 -4 144 11 127 19 c 1
 127 18 127 17 127 16 c 2
 127 -134 l 1
 84 -177 l 1
EndSplineSet
EndChar
StartChar: thorn_longs
Encoding: 59188 59188 884
Width: 400
Flags: W
HStem: -227 54<20.3388 77.6147> -177 22<-94 -81.3897> 407 20G<196 236> 407 20G<196 236> 623 4<316 360>
VStem: 98 54<-139 -138 -134 3 63.6782 287 309 341 363 534> 273 54<116 316>
LayerCount: 2
Back
SplineSet
-125 -200 m 17
 -125 -200 -88 -150 -50 -150 c 8
 -19 -150 18 -200 50 -200 c 24
 78 -200 125 -150 125 -150 c 1
 125 550 l 1
 225 650 l 17
 225 650 256 600 300 600 c 24
 328 600 375 650 376 650 c 1033
50 0 m 1
 50 0 96 50 125 50 c 0
 154 50 200 0 200 0 c 9
 300 100 l 1
 300 300 l 25
 200 400 l 1
 100 300 l 1049
EndSplineSet
Fore
SplineSet
34 -27 m 1x8e
 23 -16 l 1
 23 -16 25 -13 29 -9 c 2
 72 33 l 2
 78 39 87 49 98 57 c 1
 98 287 l 1
 84 273 l 1
 73 284 l 1
 98 309 l 1
 98 534 l 1
 241 677 l 1
 252 666 l 1
 252 666 256 658 264 649 c 0
 277 637 296 627 316 627 c 0
 344 627 391 677 392 677 c 2
 403 666 l 1
 360 623 l 2
 359 623 312 573 284 573 c 0
 260 573 241 588 228 601 c 2
 216 612 l 2
 213 615 211 618 208 621 c 1
 152 566 l 1
 152 363 l 1
 216 427 l 1
 327 316 l 1
 327 116 l 1
 184 -27 l 1
 173 -16 l 2
 173 -15 l 0
 167 -10 160 -3 152 3 c 1
 152 -134 l 2
 152 -134 151 -135 148 -138 c 2
 148 -139 l 2
 105 -181 l 2
 93 -193 57 -227 34 -227 c 0xae
 2 -227 -35 -177 -66 -177 c 0x4e
 -81 -177 -94 -184 -107 -194 c 2
 -141 -227 l 1x8e
 -152 -216 l 1
 -152 -216 -146 -208 -136 -198 c 2
 -94 -155 l 2
 -93 -155 l 0x4e
 -78 -140 -56 -123 -34 -123 c 0
 -3 -123 34 -173 66 -173 c 0
 76 -173 88 -167 98 -160 c 1
 98 21 l 1
 80 15 60 -1 47 -14 c 2
 34 -27 l 1x8e
152 75 m 1
 173 68 199 44 210 33 c 2
 216 27 l 1
 273 84 l 1
 273 284 l 2
 273 334 210 347 184 373 c 1
 152 341 l 1
 152 75 l 1
EndSplineSet
LCarets2: 1 200 
Ligature2: "Historic ligatures-1" thorn longs
EndChar
StartChar: thornbar_longs
Encoding: 59189 59189 885
Width: 400
Flags: W
HStem: -227 54<20.3388 77.6147> -177 22<-94 -81.3897> 407 20G<196 236> 407 20G<196 236> 448 54<41 98 152 184> 623 4<316 360>
VStem: 98 54<-139 -138 -134 3 63.6782 287 309 341 363 448 502 534> 273 54<116 316>
LayerCount: 2
Back
SplineSet
200 475 m 25
 25 475 l 1049
-125 -200 m 17
 -125 -200 -88 -150 -50 -150 c 8
 -19 -150 18 -200 50 -200 c 24
 78 -200 125 -150 125 -150 c 1
 125 550 l 1
 225 650 l 17
 225 650 256 600 300 600 c 24
 328 600 375 650 376 650 c 1033
50 0 m 1
 50 0 96 50 125 50 c 0
 154 50 200 0 200 0 c 9
 300 100 l 1
 300 300 l 25
 200 400 l 1
 100 300 l 1049
EndSplineSet
Fore
SplineSet
34 -27 m 1x8f
 23 -16 l 1
 23 -16 25 -13 29 -9 c 2
 72 33 l 2
 78 39 87 49 98 57 c 1
 98 287 l 1
 84 273 l 1
 73 284 l 1
 98 309 l 1
 98 448 l 1
 9 448 l 1
 -2 459 l 1
 41 502 l 1
 98 502 l 1
 98 534 l 1
 241 677 l 1
 252 666 l 1
 252 666 256 658 264 649 c 0
 277 637 296 627 316 627 c 0
 344 627 391 677 392 677 c 2
 403 666 l 1
 360 623 l 2
 359 623 312 573 284 573 c 0
 260 573 241 588 228 601 c 2
 216 612 l 2
 213 615 211 618 208 621 c 1
 152 566 l 1
 152 502 l 1
 216 502 l 1
 227 491 l 1
 184 448 l 1
 152 448 l 1
 152 363 l 1
 216 427 l 1
 327 316 l 1
 327 116 l 1
 184 -27 l 1
 173 -16 l 2
 173 -15 l 0
 167 -10 160 -3 152 3 c 1
 152 -134 l 2
 152 -134 151 -135 148 -138 c 2
 148 -139 l 2
 105 -181 l 2
 93 -193 57 -227 34 -227 c 0xaf
 2 -227 -35 -177 -66 -177 c 0x4f
 -81 -177 -94 -184 -107 -194 c 2
 -141 -227 l 1x8f
 -152 -216 l 1
 -152 -216 -146 -208 -136 -198 c 2
 -94 -155 l 2
 -93 -155 l 0x4f
 -78 -140 -56 -123 -34 -123 c 0
 -3 -123 34 -173 66 -173 c 0
 76 -173 88 -167 98 -160 c 1
 98 21 l 1
 80 15 60 -1 47 -14 c 2
 34 -27 l 1x8f
152 75 m 1
 173 68 199 44 210 33 c 2
 216 27 l 1
 273 84 l 1
 273 284 l 2
 273 334 210 347 184 373 c 1
 152 341 l 1
 152 75 l 1
EndSplineSet
LCarets2: 1 200 
Ligature2: "Historic ligatures-1" thornbar longs
EndChar
StartChar: q_rrotunda
Encoding: 59571 59571 965
Width: 600
Flags: W
HStem: -177 21G<273 304> 333 54<232.603 271.953> 407 20G<196 227 296 327 396 436> 407 20G<196 227 296 327 396 436>
VStem: 73 54<116 284> 273 54<-134 62 84 331 338 356>
LayerCount: 2
Back
SplineSet
300 100 m 9
 200 0 l 25
 100 100 l 25
 100 300 l 25
 200 400 l 1
 200 400 222 360 250 360 c 24
 278 360 300 400 300 400 c 9
 300 -150 l 1049
550 50 m 25
 500 0 l 1
 400 200 l 25
 500 300 l 1
 400 400 l 1
 350 350 l 1049
EndSplineSet
Fore
SplineSet
566 77 m 1xec
 577 66 l 1
 484 -27 l 1
 473 -16 l 1
 373 184 l 1
 473 284 l 1
 384 373 l 1
 334 323 l 1
 327 331 l 1
 327 -134 l 1
 284 -177 l 1
 273 -166 l 1
 273 62 l 1
 184 -27 l 1
 73 84 l 1
 73 284 l 1
 216 427 l 1
 227 416 l 1
 227 416 231 407 239 398 c 0
 247 392 256 387 266 387 c 0
 270 387 274 388 278 389 c 2
 316 427 l 1
 327 416 l 1
 327 338 l 1
 416 427 l 1
 527 316 l 1
 427 216 l 1
 519 31 l 1
 566 77 l 1xec
273 84 m 1
 273 356 l 1
 266 349 l 2
 257 340 246 333 234 333 c 0
 222 333 211 340 202 349 c 2
 191 361 l 2
 188 364 185 368 182 371 c 1
 127 316 l 1
 127 116 l 1
 216 27 l 1
 273 84 l 1
EndSplineSet
LCarets2: 1 350 
Ligature2: "Ligatures-1" q rrotunda
EndChar
StartChar: longs_p
Encoding: 60325 60325 709
Width: 650
Flags: W
HStem: -227 54<20.2856 81.2284> -177 22<-94 -81.3897> 407 20G<446 486> 407 20G<446 486> 573 54<287.186 431.466>
VStem: 98 54<-157.062 534> 323 54<-134 5 63.7748 316 338 341> 523 54<116 316>
LayerCount: 2
Back
SplineSet
250 0 m 1
 250 0 296 50 325 50 c 11
 378 50 450 0 450 0 c 9
 550 100 l 1
 550 300 l 25
 450 400 l 1
 350 300 l 1049
350 375 m 1
 350 -150 l 1025
-125 -200 m 17
 -125 -200 -88 -150 -50 -150 c 8
 -6 -150 6 -200 50 -200 c 24
 85 -200 125 -150 125 -150 c 1
 125 550 l 1
 225 650 l 17
 225 650 270 600 400 600 c 3
 435 600 476 650 476 650 c 9
 300 425 l 9
 375 350 l 1025
EndSplineSet
Fore
SplineSet
-141 -227 m 1x8f
 -152 -216 l 1
 -152 -216 -146 -208 -136 -198 c 2
 -94 -155 l 2
 -93 -155 l 0x4f
 -78 -140 -56 -123 -34 -123 c 0
 10 -123 22 -173 66 -173 c 0x8f
 77 -173 89 -168 98 -162 c 1
 98 534 l 1
 241 677 l 1
 242 675 l 2
 251 666 300 627 416 627 c 0
 433 627 452 639 466 651 c 2
 492 677 l 1
 503 666 l 1
 327 441 l 2
 319 431 341 413 361 398 c 1
 366 402 l 1
 377 391 l 1
 377 387 l 1
 384 382 389 379 391 377 c 2
 402 366 l 1
 377 341 l 1
 377 338 l 1
 466 427 l 1
 577 316 l 1
 577 116 l 1
 434 -27 l 1
 434 -27 409 -9 377 5 c 1
 377 -134 l 1
 334 -177 l 1x6f
 323 -166 l 1
 323 22 l 1
 318 23 313 23 309 23 c 0
 290 23 263 1 247 -14 c 2
 234 -27 l 1
 223 -16 l 1
 223 -16 225 -13 229 -9 c 2
 272 33 l 2
 282 43 303 63 323 72 c 1
 323 284 l 1
 323 359 l 1
 273 409 l 1
 405 578 l 2
 398 575 391 573 384 573 c 0
 264 573 216 616 210 622 c 2
 209 623 l 1
 152 566 l 1
 152 -134 l 1
 152 -134 146 -141 138 -149 c 2
 96 -192 l 2
 81 -207 56 -227 34 -227 c 0x8f
 -10 -227 -22 -177 -66 -177 c 0x4f
 -81 -177 -94 -184 -107 -194 c 2
 -141 -227 l 1x8f
502 665 m 1
 502 665 l 1
377 316 m 1
 377 71 l 1
 422 58 466 27 466 27 c 1
 466 27 517 78 523 84 c 1
 523 284 l 2
 523 334 460 347 434 373 c 1
 377 316 l 1
EndSplineSet
LCarets2: 1 300 
Ligature2: "Ligatures-1" longs p
EndChar
StartChar: longs_t_r
Encoding: 60330 60330 713
Width: 700
Flags: W
HStem: -227 54<20.3388 77.6147> -177 22<-94 -81.3897> 373 54<266 298 352 469> 407 20G<596 636>
VStem: 98 54<-139 -138 -134 534> 298 54<38.6367 373 427 538.055> 473 54<31 87 109 316 338 369>
LayerCount: 2
Back
SplineSet
650 350 m 25
 600 400 l 25
 500 300 l 1049
485 30 m 25
 515 0 l 1049
500 385 m 9
 500 15 l 1025
-125 -200 m 1
 -125 -200 -88 -150 -50 -150 c 8
 -19 -150 18 -200 50 -200 c 24
 78 -200 125 -150 125 -150 c 1
 125 550 l 1
 225 650 l 1
 225 650 281 550 325 550 c 1
 325 50 l 1
 375 0 l 1
 475 100 l 1025
250 400 m 1
 485 400 l 25
 515 370 l 1025
EndSplineSet
Fore
SplineSet
223 384 m 1x2e
 266 427 l 1
 298 427 l 1
 298 525 l 1
 287 529 275 538 264 549 c 0
 253 560 l 2
 234 579 217 604 207 620 c 1
 152 566 l 1
 152 -134 l 2
 152 -134 151 -135 148 -138 c 2
 148 -139 l 2
 105 -181 l 2
 93 -193 57 -227 34 -227 c 0xae
 2 -227 -35 -177 -66 -177 c 0x4e
 -81 -177 -94 -184 -107 -194 c 2
 -141 -227 l 1x8e
 -152 -216 l 1
 -152 -216 -146 -208 -136 -198 c 2
 -94 -155 l 2
 -93 -155 l 0x4e
 -78 -140 -56 -123 -34 -123 c 0
 -3 -123 34 -173 66 -173 c 0
 76 -173 88 -167 98 -160 c 1
 98 534 l 1
 241 677 l 1
 252 666 l 1
 252 666 274 626 301 597 c 0
 314 585 328 577 341 577 c 1
 352 566 l 1
 352 427 l 1xae
 501 427 l 1
 516 412 l 1
 527 401 l 1
 542 386 l 1
 527 371 l 1
 527 338 l 1
 616 427 l 1x1e
 677 366 l 1
 634 323 l 1
 584 373 l 1
 527 316 l 1
 527 31 l 1
 542 16 l 1
 499 -27 l 1
 484 -12 l 1
 473 -1 l 1
 458 14 l 1
 473 29 l 1
 473 87 l 1
 359 -27 l 1
 298 34 l 1
 298 373 l 1
 234 373 l 1
 223 384 l 1x2e
352 373 m 1
 352 66 l 2
 352 45 380 38 391 27 c 1
 473 109 l 1
 473 284 l 1
 473 369 l 1
 469 373 l 1
 352 373 l 1
EndSplineSet
LCarets2: 2 300 500 
Ligature2: "Ligatures-1" longs t r
EndChar
StartChar: b_g
Encoding: 61123 61123 350
Width: 400
GlyphClass: 3
Flags: W
HStem: -227 54<195.339 252.732> -177 22<81 93.6103> 407 20G<196 236> 407 20G<196 236>
VStem: 73 54<84 316 338 594> 273 54<-139 -138 -134 62 84 316>
LayerCount: 2
Back
SplineSet
100 610 m 9
 100 100 l 25
 200 0 l 1
 300 100 l 25
 300 300 l 1
 200 400 l 1
 100 300 l 1049
50 -200 m 17
 50 -200 87 -150 125 -150 c 8
 156 -150 193 -200 225 -200 c 24
 253 -200 300 -150 300 -150 c 1
 300 100 l 1033
85 625 m 25
 115 595 l 1049
EndSplineSet
Fore
SplineSet
58 609 m 1x8c
 101 652 l 1
 116 637 l 1
 127 626 l 1
 142 611 l 1
 127 596 l 1
 127 338 l 1
 216 427 l 1
 327 316 l 1
 327 116 l 1
 327 -134 l 2
 327 -134 326 -135 323 -138 c 2
 323 -139 l 2
 280 -181 l 2
 268 -193 232 -227 209 -227 c 0xac
 177 -227 140 -177 109 -177 c 0x4c
 94 -177 81 -184 68 -194 c 2
 34 -227 l 1x8c
 23 -216 l 1
 23 -216 29 -208 39 -198 c 2
 81 -155 l 2
 82 -155 l 0x4c
 97 -140 119 -123 141 -123 c 0
 172 -123 209 -173 241 -173 c 0
 251 -173 262 -167 273 -160 c 1
 273 62 l 1
 184 -27 l 1
 73 84 l 1
 73 594 l 1
 58 609 l 1x8c
127 316 m 1
 127 116 l 2
 127 66 190 53 216 27 c 1
 273 84 l 1
 273 284 l 2
 273 334 210 347 184 373 c 1
 127 316 l 1
EndSplineSet
LCarets2: 1 200 
Ligature2: "Historic ligatures-1" b g
EndChar
StartChar: f_r
Encoding: 61130 61130 352
Width: 550
GlyphClass: 3
Flags: W
HStem: -227 54<20.3388 77.6147> -177 22<-94 -81.3897> 373 54<66 98 152 319> 407 20G<446 486> 623 4<316 360>
VStem: 98 54<-139 -138 -134 373 427 534> 323 54<31 316 338 369>
LayerCount: 2
Back
SplineSet
-125 -200 m 1
 -125 -200 -88 -150 -50 -150 c 8
 -19 -150 18 -200 50 -200 c 24
 78 -200 125 -150 125 -150 c 1
 125 550 l 1
 225 650 l 17
 225 650 256 600 300 600 c 24
 328 600 375 650 376 650 c 1025
50 400 m 1
 335 400 l 25
 365 370 l 1025
500 350 m 25
 450 400 l 25
 350 300 l 1049
335 30 m 25
 365 0 l 1049
350 385 m 9
 350 15 l 1025
EndSplineSet
Fore
SplineSet
366 412 m 1x1e
 377 401 l 1
 392 386 l 1
 377 371 l 1
 377 338 l 1
 466 427 l 1x1e
 527 366 l 1
 484 323 l 1
 434 373 l 1
 377 316 l 1
 377 31 l 1
 392 16 l 1
 349 -27 l 1
 334 -12 l 1
 323 -1 l 1
 308 14 l 1
 323 29 l 1
 323 284 l 1
 323 369 l 1
 319 373 l 1
 152 373 l 1
 152 -134 l 2
 152 -134 151 -135 148 -138 c 2
 148 -139 l 2
 105 -181 l 2
 93 -193 57 -227 34 -227 c 0xae
 2 -227 -35 -177 -66 -177 c 0x4e
 -81 -177 -94 -184 -107 -194 c 2
 -141 -227 l 1x8e
 -152 -216 l 1
 -152 -216 -146 -208 -136 -198 c 2
 -94 -155 l 2
 -93 -155 l 0x4e
 -78 -140 -56 -123 -34 -123 c 0
 -3 -123 34 -173 66 -173 c 0
 76 -173 88 -167 98 -160 c 1
 98 373 l 1
 34 373 l 1
 23 384 l 1
 66 427 l 1
 98 427 l 1
 98 534 l 1
 241 677 l 1
 252 666 l 1
 252 666 256 658 264 649 c 0
 277 637 296 627 316 627 c 0
 344 627 391 677 392 677 c 2
 403 666 l 1
 360 623 l 2
 359 623 312 573 284 573 c 0
 260 573 241 588 228 601 c 2
 216 612 l 2
 213 615 211 618 208 621 c 1
 152 566 l 1
 152 427 l 1xae
 351 427 l 1
 366 412 l 1x1e
EndSplineSet
LCarets2: 1 300 
Ligature2: "Ligatures-1" f r
EndChar
StartChar: g_g
Encoding: 61137 61137 497
Width: 600
Flags: W
HStem: -227 54<195.339 252.732 384.185 452.732> -177 22<81 93.6103> 333 54<232.603 271.942 432.603 471.942> 407 20G<196 227 296 327 396 427 496 527> 407 20G<196 227 296 327 396 427 496 527>
VStem: 73 54<84 284> 273 54<-132.772 31 84 316 338 356> 473 54<-139 -138 -134 62 84 356>
CounterMasks: 1 07
LayerCount: 2
Back
SplineSet
300 -150 m 8
 331 -150 393 -200 425 -200 c 0
 453 -200 500 -150 500 -150 c 9
 500 400 l 1
 500 400 478 360 450 360 c 24
 422 360 400 400 400 400 c 1
 300 300 l 25
 300 100 l 25
 400 0 l 25
 500 100 l 1041
50 -200 m 17
 50 -200 87 -150 125 -150 c 8
 156 -150 193 -200 225 -200 c 24
 253 -200 300 -150 300 -150 c 9
 300 400 l 1
 300 400 278 360 250 360 c 24
 222 360 200 400 200 400 c 1
 100 300 l 25
 100 100 l 25
 200 0 l 25
 300 100 l 1041
EndSplineSet
Fore
SplineSet
273 356 m 1x27
 266 349 l 2
 257 340 246 333 234 333 c 0
 222 333 211 340 202 349 c 2
 191 361 l 2
 188 364 184 368 182 371 c 2
 127 316 l 1
 127 116 l 2
 127 66 190 53 216 27 c 1
 273 84 l 1
 273 284 l 1
 273 356 l 1x27
273 62 m 1
 184 -27 l 1
 73 84 l 1
 73 284 l 1
 216 427 l 1
 227 416 l 2
 227 416 231 407 239 398 c 0
 246 392 256 387 266 387 c 0
 270 387 273 387 278 389 c 2
 316 427 l 1
 327 416 l 1
 327 338 l 1
 416 427 l 1
 427 416 l 2
 427 416 431 407 439 398 c 0
 446 392 456 387 466 387 c 0
 470 387 473 387 478 389 c 2
 516 427 l 1
 527 416 l 1
 527 -134 l 2
 527 -134 526 -135 523 -138 c 2
 523 -139 l 2
 480 -181 l 2
 468 -193 432 -227 409 -227 c 0xb7
 377 -227 316 -177 285 -177 c 1x67
 280 -181 l 2
 268 -193 232 -227 209 -227 c 0xa7
 177 -227 140 -177 109 -177 c 0x67
 94 -177 81 -184 68 -194 c 2
 34 -227 l 1xa7
 23 -216 l 1
 23 -216 29 -208 39 -198 c 2
 81 -155 l 2
 82 -155 l 0x67
 97 -140 119 -123 141 -123 c 0
 172 -123 209 -173 241 -173 c 0xa7
 251 -173 262 -167 273 -160 c 1
 273 62 l 1
473 356 m 1
 466 349 l 2
 457 340 446 333 434 333 c 0
 422 333 411 340 402 349 c 2
 391 361 l 2
 388 364 384 368 382 371 c 2
 327 316 l 1
 327 116 l 2
 327 66 390 53 416 27 c 1
 473 84 l 1
 473 356 l 1
473 62 m 1
 384 -27 l 1
 327 31 l 1
 327 -125 l 1
 360 -134 413 -173 441 -173 c 0
 451 -173 462 -167 473 -160 c 1
 473 62 l 1
EndSplineSet
LCarets2: 1 300 
Ligature2: "Historic ligatures-1" g g
EndChar
StartChar: t_z
Encoding: 61148 61148 732
Width: 550
Flags: W
HStem: -227 54<350.005 402.711> -177 54<242.405 308.776> 323 54<153.2 340.678> 407 20G<46 77 412 436> 427 130G<46 77 121 152 412 436>
VStem: 98 54<38.6367 66 86 328 403 534> 423 54<-156.062 81>
LayerCount: 2
Back
SplineSet
50 400 m 1
 50 400 76 350 250 350 c 0
 356 350 400 400 400 400 c 1
 450 350 l 1
 300 200 l 1
 450 100 l 1
 450 -150 l 1
 450 -150 403 -200 375 -200 c 0
 343 -200 319 -150 275 -150 c 16
 237 -150 200 -200 200 -200 c 1033
125 550 m 1
 125 50 l 1
 175 0 l 1
 275 100 l 1025
EndSplineSet
Fore
SplineSet
141 577 m 1xb6
 152 566 l 1
 152 386 l 1
 180 380 217 377 266 377 c 0
 356 377 400 413 412 424 c 2
 416 427 l 1
 477 366 l 1
 329 218 l 1
 466 127 l 1
 477 116 l 1
 477 -134 l 1
 477 -134 476 -136 473 -139 c 2
 430 -181 l 2
 418 -193 382 -227 359 -227 c 0xb6
 327 -227 303 -177 259 -177 c 0x66
 244 -177 230 -185 218 -194 c 2
 184 -227 l 1xa6
 173 -216 l 1
 173 -216 179 -208 189 -198 c 2
 231 -155 l 2
 245 -141 268 -123 291 -123 c 0x66
 335 -123 359 -173 391 -173 c 0
 400 -173 410 -168 423 -160 c 1
 423 81 l 1
 284 173 l 1
 273 184 l 1
 423 334 l 1
 384 373 l 1
 292 281 215 204 152 140 c 1
 152 66 l 2
 152 45 180 38 191 27 c 1
 291 127 l 1
 302 116 l 1
 159 -27 l 1
 98 34 l 1
 98 86 l 1
 -252 -265 -93 -105 98 86 c 1
 98 338 l 1
 63 348 46 360 39 367 c 2
 28 378 l 2
 24 382 23 384 23 384 c 1
 66 427 l 1
 77 416 l 1
 77 415 l 0
 82 411 89 407 98 403 c 1
 98 534 l 1
 141 577 l 1xb6
152 328 m 1
 152 140 l 1
 270 258 383 372 383 372 c 0
 375 364 329 323 234 323 c 0
 202 323 175 325 152 328 c 1
EndSplineSet
LCarets2: 1 300 
Ligature2: "Ligatures-1" t z
EndChar
StartChar: a_l
Encoding: 61350 61350 339
Width: 400
GlyphClass: 3
Flags: W
HStem: 198 54<194.062 273> 407 20G<171 273> 407 20G<171 273>
VStem: 73 54<91 159> 273 54<31 87 109 198 252 350 410 594>
LayerCount: 2
Back
SplineSet
125 250 m 17
 100 325 l 1
 175 400 l 1
 300 375 l 1
 300 125 l 9
 175 0 l 1
 100 75 l 1
 100 175 l 1
 175 250 l 1
 175 250 193.964297096 225 250 225 c 3
 230.995781714 225 300 225 300 225 c 1033
285 30 m 25
 315 0 l 25
 345 30 l 1049
285 625 m 25
 315 595 l 1049
300 610 m 9
 300 15 l 1049
EndSplineSet
Fore
SplineSet
258 609 m 1xd8
 301 652 l 1
 316 637 l 1
 327 626 l 1
 342 611 l 1
 327 596 l 1
 327 391 l 1
 327 141 l 1
 327 31 l 1
 331 27 l 1
 361 57 l 1
 372 46 l 1
 299 -27 l 1
 284 -12 l 1
 273 -1 l 1
 258 14 l 1
 273 29 l 1
 273 87 l 1
 159 -27 l 1
 73 59 l 1
 73 159 l 1
 191 277 l 1
 195 273 l 2
 203 266 222 252 262 252 c 0
 263 252 263 252 264 252 c 2
 273 252 l 1
 273 350 l 1
 159 373 l 1
 127 341 l 1
 152 266 l 1
 109 223 l 1
 98 234 l 1
 73 309 l 1
 191 427 l 1
 273 410 l 1
 273 594 l 1
 258 609 l 1xd8
273 109 m 1
 273 198 l 1
 233 198 l 1
 189 199 167 215 161 221 c 2
 159 223 l 1
 127 191 l 1
 127 91 l 1
 191 27 l 1
 273 109 l 1
EndSplineSet
LCarets2: 1 200 
Ligature2: "Historic ligatures-1" a l
EndChar
StartChar: a_r
Encoding: 61354 61354 343
Width: 500
GlyphClass: 3
Flags: W
HStem: 198 54<194.062 273> 407 20G<171 291 396 436> 407 20G<171 291 396 436>
VStem: 73 54<91 159> 273 54<41 87 109 198 252 316 338 350>
LayerCount: 2
Back
SplineSet
125 250 m 17
 100 325 l 1
 175 400 l 1
 300 375 l 1
 300 125 l 9
 175 0 l 1
 100 75 l 1
 100 175 l 1
 175 250 l 1
 175 250 193.964297096 225 250 225 c 3
 230.995781714 225 300 225 300 225 c 1033
375 50 m 25
 325 0 l 1
 300 25 l 1
 300 375 l 1025
450 350 m 25
 400 400 l 25
 300 300 l 1049
EndSplineSet
Fore
SplineSet
477 366 m 1xd8
 434 323 l 1
 384 373 l 1
 327 316 l 1
 327 141 l 1
 327 41 l 1
 341 27 l 1
 391 77 l 1
 402 66 l 1
 309 -27 l 1
 273 9 l 1
 273 87 l 1
 159 -27 l 1
 73 59 l 1
 73 159 l 1
 191 277 l 1
 195 273 l 2
 203 266 222 252 262 252 c 0
 263 252 263 252 264 252 c 2
 273 252 l 1
 273 284 l 1
 273 350 l 1
 159 373 l 1
 127 341 l 1
 152 266 l 1
 109 223 l 1
 98 234 l 1
 73 309 l 1
 191 427 l 1
 316 402 l 1
 327 391 l 1
 327 338 l 1
 416 427 l 1
 477 366 l 1xd8
273 109 m 1
 273 198 l 1
 233 198 l 1
 189 199 167 215 161 221 c 2
 159 223 l 1
 127 191 l 1
 127 91 l 1
 191 27 l 1
 273 109 l 1
EndSplineSet
LCarets2: 1 300 
Ligature2: "Historic ligatures-1" a r
EndChar
StartChar: a_Rsmallcap
Encoding: 61355 61355 857
Width: 650
Flags: W
HStem: 198 54<194.062 273> 407 20G<171 291 396 446> 407 20G<171 291 396 446>
VStem: 73 54<91 159> 273 54<27.1868 87 109 198 252 316 338 350>
LayerCount: 2
Back
SplineSet
600 50 m 25
 550 0 l 1
 550 0 531 82 500 125 c 24
 480 154 425 175 425 175 c 1025
400 150 m 1
 550 300 l 1
 400 400 l 1
 300 300 l 1049
125 250 m 17
 100 325 l 1
 175 400 l 1
 300 375 l 1
 300 25 l 1
 325 0 l 1
 375 50 l 1049
300 125 m 25
 175 0 l 1
 100 75 l 1
 100 175 l 1
 175 250 l 1
 175 250 193.964297096 225 250 225 c 3
 230.995781714 225 300 225 300 225 c 1033
EndSplineSet
Fore
SplineSet
109 223 m 1xd8
 98 234 l 1
 73 309 l 1
 191 427 l 1
 316 402 l 1
 327 391 l 1
 327 338 l 1
 416 427 l 1
 566 327 l 1
 577 316 l 1
 456 195 l 1
 471 188 492 177 507 162 c 2
 519 150 l 2
 522 147 525 144 527 141 c 0
 549 111 564 61 572 34 c 1
 616 77 l 1
 627 66 l 1
 534 -27 l 1
 523 -16 l 1
 523 -16 504 66 473 109 c 0
 472 110 471 113 470 114 c 0
 445 135 409 148 409 148 c 2
 384 123 l 1
 373 134 l 1
 521 282 l 1
 384 373 l 2
 384 373 333 322 327 316 c 1
 327 241 l 1
 327 141 l 1
 327 41 l 2
 327 34 337 31 341 27 c 1
 391 77 l 1
 402 66 l 1
 309 -27 l 1
 273 9 l 1
 273 87 l 1
 159 -27 l 1
 73 59 l 1
 73 159 l 1
 191 277 l 1
 195 273 l 2
 203 266 222 252 262 252 c 0
 263 252 263 252 264 252 c 2
 273 252 l 1
 273 284 l 1
 273 350 l 1
 159 373 l 1
 127 341 l 1
 152 266 l 1
 109 223 l 1xd8
273 198 m 1
 233 198 l 2
 189 199 167 215 161 221 c 2
 159 223 l 1
 127 191 l 1
 127 91 l 1
 191 27 l 1
 273 109 l 1
 273 198 l 1
EndSplineSet
LCarets2: 1 300 
Ligature2: "Historic ligatures-1" a Rsmallcap
EndChar
StartChar: o_c
Encoding: 61357 61357 668
Width: 550
Flags: W
HStem: 407 20G<196 236 396 436> 407 20G<196 236 396 436>
VStem: 73 54<84 284> 273 54<84 316>
LayerCount: 2
Back
SplineSet
500 300 m 9
 400 400 l 25
 300 300 l 25
 300 100 l 25
 400 0 l 25
 500 100 l 1041
200 400 m 25
 100 300 l 25
 100 100 l 25
 200 0 l 25
 300 100 l 25
 300 300 l 25
 200 400 l 25
EndSplineSet
Fore
SplineSet
184 373 m 1x30
 127 316 l 1
 127 116 l 2
 127 66 190 53 216 27 c 1
 273 84 l 1
 273 284 l 2
 273 334 210 347 184 373 c 1x30
73 284 m 1
 216 427 l 1
 316 327 l 1
 416 427 l 1xb0
 527 316 l 1
 484 273 l 1
 384 373 l 1
 327 316 l 1
 327 116 l 2
 327 66 390 53 416 27 c 1
 516 127 l 1
 527 116 l 1
 384 -27 l 1
 284 73 l 1
 184 -27 l 1
 73 84 l 1
 73 284 l 1
EndSplineSet
LCarets2: 1 300 
Ligature2: "Historic ligatures-1" o c
EndChar
StartChar: longs_j
Encoding: 62715 62715 329
Width: 450
GlyphClass: 3
Flags: W
HStem: -227 54<20.2856 81.2284> -177 22<-94 -81.3897> 407 20G<331 366> 407 20G<331 366> 533 21G<333 364>
VStem: 98 54<-157.062 534> 323 54<-84 369>
LayerCount: 2
Back
SplineSet
350 385 m 1
 350 -100 l 9
 320 -130 l 1049
335 400 m 25
 365 370 l 1025
-125 -200 m 1
 -125 -200 -88 -150 -50 -150 c 8
 -6 -150 6 -200 50 -200 c 24
 85 -200 125 -150 125 -150 c 1
 125 550 l 1
 225 650 l 1
 225 650 330 590 390 590 c 9
 360 560 l 1025
EndSplineSet
Fore
SplineSet
-141 -227 m 1x8e
 -152 -216 l 1
 -152 -216 -146 -208 -136 -198 c 2
 -94 -155 l 2
 -93 -155 l 0x4e
 -78 -140 -56 -123 -34 -123 c 0
 10 -123 22 -173 66 -173 c 0
 77 -173 89 -168 98 -162 c 1
 98 534 l 1
 241 677 l 1
 241 677 346 617 406 617 c 1
 417 606 l 1
 344 533 l 1
 333 544 l 1
 354 565 l 1
 294 575 209 623 209 623 c 1
 152 566 l 1
 152 -134 l 1
 152 -134 146 -141 138 -149 c 2
 96 -192 l 2
 81 -207 56 -227 34 -227 c 0x8e
 -10 -227 -22 -177 -66 -177 c 0x4e
 -81 -177 -94 -184 -107 -194 c 2
 -141 -227 l 1x8e
308 384 m 1
 351 427 l 1x2e
 366 412 l 1
 377 401 l 1
 392 386 l 1
 377 371 l 1
 377 -84 l 1
 304 -157 l 1
 293 -146 l 1
 323 -116 l 1
 323 369 l 1
 308 384 l 1
EndSplineSet
LCarets2: 1 300 
Ligature2: "Ligatures-1" longs j
EndChar
StartChar: longs_longs_k
Encoding: 62718 62718 711
Width: 850
Flags: W
HStem: -227 54<20.3388 77.6147 209.185 277.732> -177 22<-94 -81.3897> 432 20G<731 770.048> 573 54<478.474 523>
VStem: 98 54<-132.772 534> 298 54<-156.062 538.055> 523 54<31 205 235 573> 723 54<31 182 366 394>
LayerCount: 2
Back
SplineSet
735 425 m 25
 765 395 l 1049
550 200 m 1
 750 350 l 9
 750 410 l 1049
650 275 m 1
 750 200 l 1
 750 15 l 1025
735 30 m 25
 765 0 l 1049
535 30 m 25
 565 0 l 1049
550 15 m 1
 550 600 l 1
 466 600 425 650 425 650 c 9
 325 550 l 1
 325 -150 l 1
 325 -150 278 -200 250 -200 c 0
 218 -200 156 -150 125 -150 c 1025
-125 -200 m 17
 -125 -200 -88 -150 -50 -150 c 8
 -19 -150 18 -200 50 -200 c 24
 78 -200 125 -150 125 -150 c 1
 125 550 l 1
 225 650 l 1
 225 650 281 550 325 550 c 1025
EndSplineSet
Fore
SplineSet
-141 -227 m 1xbf
 -152 -216 l 1
 -152 -216 -146 -208 -136 -198 c 2
 -94 -155 l 2
 -93 -155 l 0x7f
 -78 -140 -56 -123 -34 -123 c 0
 -3 -123 34 -173 66 -173 c 0
 76 -173 88 -167 98 -160 c 1
 98 534 l 1
 241 677 l 1
 252 666 l 1
 252 666 274 626 301 597 c 0
 314 585 328 577 341 577 c 1
 441 677 l 1
 449 668 l 2
 465 654 504 627 566 627 c 1
 577 616 l 1
 577 235 l 1
 666 302 l 1
 723 345 l 1
 723 394 l 1
 708 409 l 1
 751 452 l 1
 771 431 l 1
 777 426 l 1
 792 411 l 1
 777 396 l 1
 777 366 l 1
 734 323 l 1
 686 287 l 1
 766 227 l 1
 777 216 l 1
 777 31 l 1
 792 16 l 1
 749 -27 l 1
 734 -12 l 1
 723 -1 l 1
 708 14 l 1
 723 29 l 1
 723 182 l 1
 634 248 l 1
 577 205 l 1
 577 31 l 1
 592 16 l 1
 549 -27 l 1
 534 -12 l 1
 523 -1 l 1
 508 14 l 1
 523 29 l 1
 523 184 l 1
 523 573 l 1
 460 576 424 608 413 619 c 2
 409 623 l 1
 352 566 l 1
 352 -134 l 1
 352 -134 351 -136 348 -139 c 2
 305 -181 l 2
 293 -193 257 -227 234 -227 c 0xbf
 202 -227 141 -177 110 -177 c 1x7f
 105 -181 l 2
 93 -193 57 -227 34 -227 c 0xbf
 2 -227 -35 -177 -66 -177 c 0x7f
 -81 -177 -94 -184 -107 -194 c 2
 -141 -227 l 1xbf
298 525 m 1
 287 529 275 538 264 549 c 0
 253 560 l 2
 234 579 217 604 207 620 c 1
 152 566 l 1
 152 -125 l 1
 185 -134 238 -173 266 -173 c 0xbf
 276 -173 287 -168 298 -160 c 1
 298 525 l 1
EndSplineSet
LCarets2: 2 300 500 
Ligature2: "Ligatures-1" longs longs k
EndChar
StartChar: f_f_i
Encoding: 64259 64259 324
Width: 650
Flags: W
HStem: -227 54<20.3388 77.6147 209.185 277.615> -177 22<-94 -81.3897> 373 54<66 98 152 298 352 519> 533 21G<533 564>
VStem: 98 54<-132.772 373 427 534> 298 54<-139 -138 -134 373 427 538.055> 523 54<31 369>
LayerCount: 2
Back
SplineSet
125 -150 m 1
 156 -150 218 -200 250 -200 c 0
 278 -200 325 -150 325 -150 c 1
 325 550 l 1
 425 650 l 17
 425 650 530 590 590 590 c 1
 560 560 l 1025
-125 -200 m 1
 -125 -200 -88 -150 -50 -150 c 8
 -19 -150 18 -200 50 -200 c 24
 78 -200 125 -150 125 -150 c 1
 125 550 l 1
 225 650 l 1
 225 650 281 550 325 550 c 1025
50 400 m 1
 535 400 l 25
 565 370 l 1025
550 385 m 9
 550 15 l 1025
535 30 m 25
 565 0 l 25
 595 30 l 1049
EndSplineSet
Fore
SplineSet
23 384 m 1xbe
 66 427 l 1
 98 427 l 1
 98 534 l 1
 241 677 l 1
 252 666 l 1
 252 666 274 626 301 597 c 0
 314 585 328 577 341 577 c 1
 441 677 l 1
 441 677 546 617 606 617 c 1
 617 606 l 1
 544 533 l 1
 533 544 l 1
 554 565 l 1
 494 575 409 623 409 623 c 1
 352 566 l 1
 352 427 l 1
 551 427 l 1
 566 412 l 1
 577 401 l 1
 592 386 l 1
 577 371 l 1
 577 31 l 1
 581 27 l 1
 611 57 l 1
 622 46 l 1
 549 -27 l 1
 534 -12 l 1
 529 -6 l 1
 508 14 l 1
 523 29 l 1
 523 369 l 1
 519 373 l 1
 352 373 l 1
 352 -134 l 2
 352 -134 351 -135 348 -138 c 2
 348 -139 l 2
 305 -181 l 2
 293 -193 257 -227 234 -227 c 0xbe
 202 -227 141 -177 110 -177 c 1x7e
 105 -181 l 2
 93 -193 57 -227 34 -227 c 0xbe
 2 -227 -35 -177 -66 -177 c 0x7e
 -81 -177 -94 -184 -107 -194 c 2
 -141 -227 l 1xbe
 -152 -216 l 1
 -152 -216 -146 -208 -136 -198 c 2
 -94 -155 l 2
 -93 -155 l 0x7e
 -78 -140 -56 -123 -34 -123 c 0
 -3 -123 34 -173 66 -173 c 0
 76 -173 88 -167 98 -160 c 1
 98 373 l 1
 34 373 l 1
 23 384 l 1xbe
152 427 m 1
 298 427 l 1
 298 525 l 1
 287 529 275 538 264 549 c 0
 253 560 l 2
 234 579 217 604 207 620 c 1
 152 566 l 1
 152 427 l 1
152 373 m 1
 152 -125 l 1
 185 -134 238 -173 266 -173 c 0
 276 -173 288 -167 298 -160 c 1
 298 373 l 1
 152 373 l 1
EndSplineSet
LCarets2: 2 300 500 
Ligature2: "Ligatures-1" f f i
EndChar
